<svg width="360" height="476" fill="none" xmlns="http://www.w3.org/2000/svg"><g clip-path="url(#a)"><path fill="#fff" d="M0 0h360v476H0z"/><g clip-path="url(#b)"><g opacity=".3"><path d="m292.183 191.5 1.733.883v72.003L151 191.5h141.183Z" fill="#E21F26"/><path d="m151 191.499 142.916-72.886v72.003l-1.733.883H151Z" fill="#1D3E74"/><path d="M359.822 85v72.003l-65.906 33.612v-72.003L359.822 85Z" fill="#E21F26"/><path d="M360.183 226.18v72.001l-66.267-33.795v-72.003l66.267 33.797Z" fill="#1D3E74"/></g><path d="m31.361 157.531-1.308.676v55.124L138 157.531H31.362Z" fill="#E21F26"/><path d="m138 157.534-107.947-55.8v55.124l1.308.676H138Z" fill="#1D3E74"/><path d="M-19.727 76v55.124l49.78 25.733v-55.124L-19.728 76Z" fill="#E21F26"/><path d="M-20 184.085v55.122l50.052-25.872v-55.124L-20 184.085Z" fill="#1D3E74"/></g><path fill="url(#c)" d="M0 0h360v55H0z"/><path d="M60.57 28.264h-5.113l-.027-2.817h4.293c.756 0 1.376-.095 1.859-.287.483-.2.843-.488 1.08-.861.246-.383.37-.848.37-1.395 0-.62-.12-1.12-.356-1.504-.228-.382-.588-.66-1.08-.834-.483-.173-1.108-.26-1.873-.26h-2.844V37h-4.102V17.094h6.946c1.157 0 2.192.11 3.103.328.92.219 1.7.551 2.338.998a4.441 4.441 0 0 1 1.463 1.695c.337.675.506 1.477.506 2.407 0 .82-.187 1.576-.56 2.269-.365.693-.944 1.258-1.737 1.695-.784.438-1.81.68-3.076.725l-1.19 1.053ZM60.393 37h-6.057l1.6-3.2h4.457c.72 0 1.307-.113 1.763-.341.456-.237.793-.556 1.012-.957.219-.401.328-.861.328-1.38 0-.584-.1-1.09-.3-1.518a2.03 2.03 0 0 0-.93-.985c-.429-.237-.994-.355-1.696-.355h-3.95l.027-2.817h4.921l.944 1.108c1.212-.018 2.187.196 2.925.642.748.438 1.29 1.007 1.627 1.71a5.03 5.03 0 0 1 .52 2.255c0 1.276-.278 2.352-.834 3.227-.556.866-1.372 1.517-2.447 1.955-1.067.437-2.37.656-3.91.656Zm14.374-12.646h4.649c1.558 0 2.903.26 4.033.779 1.14.52 2.01 1.248 2.611 2.187.61.94.916 2.033.916 3.282 0 .947-.173 1.813-.52 2.597a5.82 5.82 0 0 1-1.503 2.024c-.657.565-1.45 1.002-2.38 1.312-.929.31-1.982.465-3.157.465h-7.328V17.094h4.115V33.8h3.213c.774 0 1.417-.146 1.927-.438.52-.291.907-.679 1.162-1.162a3.481 3.481 0 0 0 .383-1.627 3.08 3.08 0 0 0-.383-1.531c-.255-.465-.642-.83-1.162-1.094-.51-.264-1.153-.396-1.927-.396h-4.649v-3.2Zm18.06-7.26V37H88.74V17.094h4.088Zm8.92 13.453 7.998-13.453h4.102V37h-4.102V23.547L101.747 37h-4.101V17.094h4.101v13.453Zm30.125-13.453v3.213h-8.969V37h-4.088V17.094h13.057Zm11.695 12.81h-5.072v-3.199h5.072c.784 0 1.422-.127 1.914-.383a2.457 2.457 0 0 0 1.08-1.093c.228-.465.342-.99.342-1.573 0-.592-.114-1.144-.342-1.654a2.763 2.763 0 0 0-1.08-1.23c-.492-.31-1.13-.465-1.914-.465h-3.651V37h-4.101V17.094h7.752c1.558 0 2.894.282 4.006.847 1.121.556 1.978 1.327 2.57 2.311.592.984.889 2.11.889 3.377 0 1.285-.297 2.397-.889 3.336-.592.939-1.449 1.663-2.57 2.174-1.112.51-2.448.765-4.006.765Zm17.519-9.406L155.672 37h-4.361l7.396-19.906h2.775l-.396 3.404ZM165.584 37l-5.428-16.502-.437-3.404h2.802L169.959 37h-4.375Zm-.246-7.41v3.213h-10.514V29.59h10.514Zm11.818.957 7.998-13.453h4.101V37h-4.101V23.547L177.156 37h-4.102V17.094h4.102v13.453Zm5.988-18.676h2.803c0 .784-.196 1.481-.588 2.092-.383.602-.93 1.075-1.641 1.422-.711.337-1.549.506-2.515.506-1.468 0-2.63-.374-3.487-1.121-.847-.748-1.271-1.714-1.271-2.899h2.789c0 .474.146.898.437 1.272.301.373.812.56 1.532.56.711 0 1.212-.187 1.504-.56.291-.374.437-.798.437-1.272Zm28.626 5.182V37h-3.937V21.592l-4.731 1.504v-3.104l8.244-2.94h.424Zm20.615 13.494 7.998-13.453h4.101V37h-4.101V23.547L232.385 37h-4.102V17.094h4.102v13.453Zm24.492-3.09h-3.09v-2.174h2.461c.72 0 1.303-.11 1.75-.328.446-.228.774-.547.984-.957.21-.41.314-.893.314-1.45 0-.455-.118-.874-.355-1.257-.228-.383-.583-.688-1.066-.916-.483-.237-1.099-.355-1.846-.355-.565 0-1.08.1-1.545.3-.465.2-.834.483-1.107.848-.274.355-.411.788-.411 1.299h-4.087c0-.875.186-1.66.56-2.352a5.386 5.386 0 0 1 1.559-1.777 7.284 7.284 0 0 1 2.297-1.121 9.616 9.616 0 0 1 2.734-.383c1.121 0 2.133.123 3.035.37.902.236 1.677.592 2.324 1.066a4.797 4.797 0 0 1 1.491 1.763c.346.702.519 1.518.519 2.447 0 .684-.155 1.327-.465 1.928a4.864 4.864 0 0 1-1.326 1.586c-.574.456-1.262.816-2.064 1.08-.803.255-1.691.383-2.666.383Zm-3.09-1.19h3.09c1.084 0 2.046.114 2.884.342.848.228 1.563.56 2.147.998.592.438 1.039.98 1.34 1.627.31.638.464 1.372.464 2.201 0 .93-.191 1.755-.574 2.475a5.202 5.202 0 0 1-1.599 1.832c-.684.502-1.495.88-2.434 1.135-.93.255-1.955.383-3.076.383-.893 0-1.782-.11-2.666-.328a8.152 8.152 0 0 1-2.406-1.04 5.304 5.304 0 0 1-1.723-1.79c-.428-.73-.643-1.605-.643-2.625h4.116c0 .483.141.925.423 1.326.283.392.675.706 1.176.943.502.228 1.076.342 1.723.342.756 0 1.399-.119 1.928-.356.537-.237.943-.56 1.216-.97.283-.42.424-.88.424-1.381 0-.538-.073-.994-.218-1.367a2.233 2.233 0 0 0-.643-.916 2.562 2.562 0 0 0-1.053-.534 5.597 5.597 0 0 0-1.435-.164h-2.461v-2.132Zm26.356-.93h2.106c.674 0 1.23-.113 1.668-.34.437-.238.761-.566.97-.985.219-.429.329-.925.329-1.49 0-.51-.101-.962-.301-1.354a2.042 2.042 0 0 0-.889-.93c-.401-.228-.907-.341-1.517-.341-.483 0-.93.095-1.34.287-.41.191-.739.46-.985.806-.246.347-.369.766-.369 1.258h-3.951c0-1.094.292-2.046.875-2.857.593-.812 1.385-1.445 2.379-1.9.993-.456 2.087-.684 3.281-.684 1.349 0 2.53.218 3.541.656 1.012.428 1.8 1.062 2.365 1.9.566.839.848 1.878.848 3.117a4.11 4.11 0 0 1-.437 1.832 5.148 5.148 0 0 1-1.258 1.586c-.538.465-1.194.839-1.969 1.122-.775.273-1.645.41-2.611.41h-2.735v-2.092Zm0 2.995v-2.037h2.735c1.084 0 2.037.123 2.857.37.82.245 1.509.6 2.065 1.066.556.455.975.997 1.257 1.626.283.62.424 1.308.424 2.065 0 .93-.177 1.759-.533 2.488a5.207 5.207 0 0 1-1.504 1.832 6.86 6.86 0 0 1-2.242 1.149c-.857.255-1.791.382-2.803.382a9.105 9.105 0 0 1-2.474-.341 7.362 7.362 0 0 1-2.188-1.053 5.406 5.406 0 0 1-1.558-1.777c-.383-.72-.575-1.573-.575-2.557h3.951c0 .51.128.966.383 1.367s.606.716 1.053.944c.456.227.962.341 1.518.341.628 0 1.166-.114 1.613-.342a2.466 2.466 0 0 0 1.039-.984c.246-.428.369-.925.369-1.49 0-.73-.132-1.313-.396-1.75a2.356 2.356 0 0 0-1.135-.985c-.492-.21-1.076-.314-1.75-.314h-2.106Zm23.603-11.443h.575v3.144h-.233c-1.039 0-1.964.155-2.775.465a5.723 5.723 0 0 0-2.065 1.326 5.772 5.772 0 0 0-1.285 2.051c-.291.802-.437 1.7-.437 2.693v3.309c0 .71.068 1.34.205 1.887.146.537.351.989.615 1.353.274.356.593.625.957.807.365.173.775.26 1.231.26a2.46 2.46 0 0 0 1.162-.274c.355-.182.656-.437.902-.765.255-.338.447-.73.574-1.176.137-.456.205-.953.205-1.49 0-.538-.068-1.035-.205-1.49a3.366 3.366 0 0 0-.574-1.177 2.627 2.627 0 0 0-.93-.779 2.709 2.709 0 0 0-1.23-.273c-.62 0-1.167.146-1.641.437a3.135 3.135 0 0 0-1.093 1.094 2.934 2.934 0 0 0-.424 1.408l-1.19-.765a5.68 5.68 0 0 1 .438-1.997 5.472 5.472 0 0 1 1.121-1.668 5.07 5.07 0 0 1 1.736-1.148c.675-.282 1.436-.424 2.283-.424.93 0 1.746.178 2.448.534a5.044 5.044 0 0 1 1.777 1.462 6.49 6.49 0 0 1 1.066 2.147c.237.811.356 1.677.356 2.598a7.44 7.44 0 0 1-.479 2.693 6.306 6.306 0 0 1-1.353 2.174 6.124 6.124 0 0 1-2.106 1.449c-.82.346-1.741.52-2.761.52-1.058 0-2.019-.192-2.885-.575a6.565 6.565 0 0 1-2.215-1.64c-.62-.702-1.098-1.536-1.436-2.502-.328-.967-.492-2.024-.492-3.172v-1.532c0-1.604.233-3.071.698-4.402.474-1.34 1.153-2.497 2.037-3.473a9.053 9.053 0 0 1 3.199-2.283c1.249-.537 2.657-.806 4.224-.806Z" fill="#fff"/><path stroke="#E31F13" d="M0 54.5h360"/></g><defs><clipPath id="a"><path fill="#fff" d="M0 0h360v476H0z"/></clipPath><clipPath id="b"><path fill="#fff" transform="translate(0 76)" d="M0 0h360v400H0z"/></clipPath><linearGradient id="c" x1="180" y1="0" x2="180" y2="55" gradientUnits="userSpaceOnUse"><stop stop-color="red"/><stop offset="1" stop-color="#D00707"/></linearGradient></defs></svg>