<svg width="360" height="476" fill="none" xmlns="http://www.w3.org/2000/svg"><path d="M19.95 406.047h2.058v3.056c0 .437.066.779.198 1.025.137.246.342.419.615.519.278.096.622.144 1.032.144.155 0 .338-.007.547-.02.215-.014.433-.035.657-.062.223-.032.437-.066.642-.103a3.55 3.55 0 0 0 .513-.136v1.599a4.273 4.273 0 0 1-.513.13c-.205.041-.42.078-.642.11a11.963 11.963 0 0 1-1.203.082c-.793 0-1.482-.114-2.065-.342-.583-.228-1.037-.584-1.36-1.067-.32-.487-.479-1.114-.479-1.879v-3.056Zm5.831 0h2.051V416h-2.05v-9.953Zm11.207 8.353v1.6H31.69v-1.6h5.298Zm-4.628-8.353V416h-2.05v-9.953h2.05Zm3.938 4.054v1.558H31.69v-1.558h4.608Zm.683-4.054v1.606h-5.29v-1.606h5.29Zm2.84 0h1.736l2.557 7.307 2.556-7.307h1.737L44.81 416h-1.394l-3.596-9.953Zm-.937 0h1.73l.314 7.123V416h-2.044v-9.953Zm8.73 0h1.736V416H47.3v-2.83l.314-7.123Zm12.342 0V416h-2.051v-8.347h-4V416h-2.05v-9.953h8.1Zm4.466 6.726 4-6.726h2.05V416h-2.05v-6.727l-4 6.727h-2.05v-9.953h2.05v6.726Zm16.703-1.982v.472c0 .756-.103 1.435-.308 2.037a4.486 4.486 0 0 1-.868 1.538c-.373.419-.82.74-1.34.964a4.274 4.274 0 0 1-1.715.335 4.306 4.306 0 0 1-1.716-.335 3.858 3.858 0 0 1-1.34-.964 4.51 4.51 0 0 1-.882-1.538c-.205-.602-.308-1.281-.308-2.037v-.472c0-.761.103-1.44.308-2.037a4.475 4.475 0 0 1 .868-1.538 3.802 3.802 0 0 1 1.34-.971 4.305 4.305 0 0 1 1.716-.335c.629 0 1.2.112 1.716.335.52.223.966.547 1.34.971.378.424.67.936.874 1.538.21.597.315 1.276.315 2.037Zm-2.071.472v-.486c0-.528-.048-.993-.144-1.394a3.029 3.029 0 0 0-.424-1.012 1.835 1.835 0 0 0-.683-.615 1.958 1.958 0 0 0-.923-.212c-.346 0-.654.071-.923.212-.264.137-.49.342-.677.615a3.123 3.123 0 0 0-.417 1.012 6.046 6.046 0 0 0-.143 1.394v.486c0 .524.048.989.143 1.394.096.401.237.741.424 1.019.187.273.415.481.684.622.269.141.576.212.923.212.346 0 .653-.071.922-.212.27-.141.495-.349.677-.622.183-.278.322-.618.417-1.019.096-.405.144-.87.144-1.394Zm10.885-1.162v1.599h-5.195v-1.599h5.195Zm-4.587-4.054V416h-2.05v-9.953h2.05Zm6.05 0V416h-2.044v-9.953h2.044Zm6.654 1.702L95.35 416h-2.18l3.698-9.953h1.387l-.198 1.702Zm2.249 8.251-2.714-8.251-.218-1.702h1.401l3.719 9.953h-2.188Zm-.123-3.705v1.606h-5.257v-1.606h5.257Zm7.536-6.248V416h-2.044v-9.953h2.044Zm3.063 0v1.606h-8.121v-1.606h8.121Zm1.93 8.292-.007 1.319c0 .506-.127 1.016-.383 1.531-.25.515-.569.937-.957 1.265l-1.025-.526c.114-.21.226-.42.335-.629.109-.21.201-.44.273-.691.073-.25.11-.535.11-.854v-1.415h1.654Zm-88.926 15.293H21.23l-.014-1.408h2.146c.379 0 .688-.048.93-.144.242-.1.422-.244.54-.431a1.26 1.26 0 0 0 .185-.697c0-.31-.06-.56-.178-.752a.98.98 0 0 0-.54-.417c-.242-.086-.554-.13-.937-.13H21.94V434h-2.05v-9.953h3.472c.58 0 1.096.055 1.552.164.46.109.85.276 1.169.499.319.223.563.506.732.848.168.337.252.738.252 1.203 0 .41-.093.788-.28 1.135-.182.346-.472.628-.868.847-.392.219-.905.34-1.538.362l-.595.527ZM23.696 434h-3.028l.8-1.6h2.228c.36 0 .654-.057.882-.171a1.17 1.17 0 0 0 .506-.478 1.42 1.42 0 0 0 .164-.69c0-.292-.05-.545-.15-.759a1.016 1.016 0 0 0-.465-.492c-.214-.119-.497-.178-.848-.178H21.81l.013-1.408h2.461l.472.553c.606-.009 1.094.098 1.463.322.373.218.645.503.813.854.173.351.26.727.26 1.128 0 .638-.139 1.176-.417 1.613-.278.433-.686.759-1.224.978-.533.219-1.184.328-1.955.328Zm12.078-9.953V434h-2.05v-9.953h2.05Zm5.865 0-3.814 5.845h-2.509l-.26-1.826h1.675l2.42-4.019h2.488ZM39.527 434l-2.79-4.45 1.423-1.463 3.8 5.913h-2.433Zm11.897-5.209v.472c0 .756-.102 1.435-.307 2.037a4.486 4.486 0 0 1-.869 1.538c-.373.419-.82.74-1.34.964a4.274 4.274 0 0 1-1.715.335 4.305 4.305 0 0 1-1.716-.335 3.859 3.859 0 0 1-1.34-.964 4.512 4.512 0 0 1-.882-1.538c-.205-.602-.307-1.281-.307-2.037v-.472c0-.761.102-1.44.307-2.037a4.477 4.477 0 0 1 .868-1.538 3.802 3.802 0 0 1 1.34-.971 4.305 4.305 0 0 1 1.716-.335c.629 0 1.2.112 1.716.335.52.223.966.547 1.34.971.378.424.67.936.875 1.538.21.597.314 1.276.314 2.037Zm-2.071.472v-.486c0-.528-.048-.993-.144-1.394a3.029 3.029 0 0 0-.424-1.012 1.835 1.835 0 0 0-.683-.615 1.958 1.958 0 0 0-.923-.212c-.346 0-.654.071-.923.212-.264.137-.49.342-.676.615a3.123 3.123 0 0 0-.417 1.012 6.046 6.046 0 0 0-.144 1.394v.486c0 .524.048.989.144 1.394.095.401.237.741.423 1.019.187.273.415.481.684.622.269.141.576.212.923.212.346 0 .654-.071.923-.212.269-.141.494-.349.676-.622.183-.278.322-.618.417-1.019.096-.405.144-.87.144-1.394Zm8.233-5.216V434h-2.044v-9.953h2.044Zm3.063 0v1.606h-8.121v-1.606h8.12Zm9.853 4.744v.472c0 .756-.103 1.435-.308 2.037a4.485 4.485 0 0 1-.868 1.538c-.373.419-.82.74-1.34.964a4.274 4.274 0 0 1-1.716.335 4.305 4.305 0 0 1-1.715-.335 3.859 3.859 0 0 1-1.34-.964 4.512 4.512 0 0 1-.882-1.538c-.205-.602-.308-1.281-.308-2.037v-.472c0-.761.103-1.44.308-2.037a4.477 4.477 0 0 1 .868-1.538 3.8 3.8 0 0 1 1.34-.971 4.305 4.305 0 0 1 1.716-.335c.629 0 1.2.112 1.716.335.52.223.966.547 1.34.971.378.424.67.936.874 1.538.21.597.315 1.276.315 2.037Zm-2.071.472v-.486c0-.528-.048-.993-.144-1.394a3.03 3.03 0 0 0-.424-1.012 1.835 1.835 0 0 0-.683-.615 1.958 1.958 0 0 0-.923-.212c-.347 0-.654.071-.923.212-.264.137-.49.342-.677.615a3.123 3.123 0 0 0-.417 1.012 6.047 6.047 0 0 0-.143 1.394v.486c0 .524.047.989.143 1.394.096.401.237.741.424 1.019.187.273.415.481.684.622.269.141.576.212.922.212.347 0 .654-.071.923-.212.27-.141.495-.349.677-.622.182-.278.321-.618.417-1.019.096-.405.144-.87.144-1.394Zm8.124 1.189h-2.537v-1.599h2.537c.391 0 .71-.064.956-.192.247-.132.427-.314.54-.547a1.76 1.76 0 0 0 .171-.786c0-.296-.056-.572-.17-.827a1.382 1.382 0 0 0-.54-.615c-.247-.155-.566-.233-.957-.233h-1.826V434h-2.05v-9.953h3.876c.779 0 1.446.141 2.002.424.561.278.99.663 1.286 1.155.296.492.444 1.055.444 1.688 0 .643-.148 1.199-.444 1.668-.297.47-.725.832-1.286 1.087-.556.256-1.223.383-2.002.383Zm14.023-1.661v.472c0 .756-.103 1.435-.308 2.037a4.486 4.486 0 0 1-.868 1.538c-.374.419-.82.74-1.34.964a4.274 4.274 0 0 1-1.716.335 4.305 4.305 0 0 1-1.716-.335 3.859 3.859 0 0 1-1.34-.964 4.512 4.512 0 0 1-.881-1.538c-.205-.602-.308-1.281-.308-2.037v-.472c0-.761.103-1.44.308-2.037a4.477 4.477 0 0 1 .868-1.538 3.8 3.8 0 0 1 1.34-.971 4.305 4.305 0 0 1 1.716-.335c.629 0 1.2.112 1.715.335.52.223.967.547 1.34.971.378.424.67.936.875 1.538.21.597.315 1.276.315 2.037Zm-2.072.472v-.486c0-.528-.047-.993-.143-1.394a3.03 3.03 0 0 0-.424-1.012 1.835 1.835 0 0 0-.683-.615 1.958 1.958 0 0 0-.923-.212c-.347 0-.654.071-.923.212-.265.137-.49.342-.677.615a3.123 3.123 0 0 0-.417 1.012 6.047 6.047 0 0 0-.144 1.394v.486c0 .524.048.989.144 1.394.096.401.237.741.424 1.019.187.273.415.481.683.622.27.141.577.212.923.212.347 0 .654-.071.923-.212.269-.141.495-.349.677-.622.182-.278.321-.618.417-1.019.096-.405.143-.87.143-1.394Zm5.185-5.216h1.736l2.557 7.307 2.556-7.307h1.737L98.681 434h-1.394l-3.596-9.953Zm-.937 0h1.73l.314 7.123V434h-2.044v-9.953Zm8.73 0h1.736V434h-2.051v-2.83l.315-7.123Zm-74.958 22.054v1.599h-5.195v-1.599h5.195Zm-4.587-4.054V452h-2.05v-9.953h2.05Zm6.05 0V452h-2.044v-9.953h2.044Zm9.163 8.353v1.6h-5.298v-1.6h5.298Zm-4.628-8.353V452h-2.05v-9.953h2.05Zm3.938 4.054v1.558h-4.608v-1.558h4.608Zm.683-4.054v1.606h-5.29v-1.606h5.29Zm6.49 0V452h-2.044v-9.953h2.044Zm3.063 0v1.606h-8.121v-1.606h8.12Zm13.793 0V452h-2.05v-8.347h-4V452h-2.05v-9.953h8.1Zm6.367 6.405h-2.536v-1.599h2.536c.392 0 .711-.064.957-.192.246-.132.427-.314.54-.547a1.76 1.76 0 0 0 .171-.786c0-.296-.057-.572-.17-.827a1.382 1.382 0 0 0-.54-.615c-.247-.155-.566-.233-.958-.233h-1.825V452h-2.05v-9.953h3.875c.78 0 1.447.141 2.003.424.56.278.99.663 1.285 1.155.297.492.445 1.055.445 1.688 0 .643-.148 1.199-.444 1.668-.297.47-.725.832-1.286 1.087-.556.256-1.223.383-2.003.383Zm14.024-1.661v.472c0 .756-.103 1.435-.308 2.037a4.486 4.486 0 0 1-.868 1.538c-.374.419-.82.74-1.34.964a4.274 4.274 0 0 1-1.716.335 4.305 4.305 0 0 1-1.716-.335 3.859 3.859 0 0 1-1.34-.964 4.512 4.512 0 0 1-.881-1.538c-.205-.602-.308-1.281-.308-2.037v-.472c0-.761.103-1.44.308-2.037a4.477 4.477 0 0 1 .868-1.538 3.8 3.8 0 0 1 1.34-.971 4.305 4.305 0 0 1 1.715-.335c.63 0 1.201.112 1.716.335.52.223.966.547 1.34.971.378.424.67.936.875 1.538.21.597.315 1.276.315 2.037Zm-2.072.472v-.486c0-.528-.047-.993-.143-1.394a3.03 3.03 0 0 0-.424-1.012 1.835 1.835 0 0 0-.684-.615 1.958 1.958 0 0 0-.922-.212c-.347 0-.654.071-.923.212-.265.137-.49.342-.677.615a3.123 3.123 0 0 0-.417 1.012 6.047 6.047 0 0 0-.144 1.394v.486c0 .524.048.989.144 1.394.096.401.237.741.424 1.019.187.273.415.481.683.622.27.141.577.212.923.212.347 0 .654-.071.923-.212.269-.141.495-.349.677-.622.182-.278.321-.618.417-1.019.096-.405.143-.87.143-1.394Zm6.224 1.51 3.999-6.726h2.05V452h-2.05v-6.727l-4 6.727h-2.05v-9.953h2.05v6.726Zm15.062-6.726v1.606h-4.484V452h-2.044v-9.953h6.528Zm5.848 6.405h-2.537v-1.599h2.537c.391 0 .71-.064.957-.192.246-.132.426-.314.54-.547.114-.232.171-.494.171-.786 0-.296-.057-.572-.171-.827a1.383 1.383 0 0 0-.54-.615c-.247-.155-.566-.233-.957-.233h-1.826V452h-2.05v-9.953h3.876c.779 0 1.446.141 2.002.424.561.278.989.663 1.286 1.155.296.492.444 1.055.444 1.688 0 .643-.148 1.199-.444 1.668-.297.47-.725.832-1.286 1.087-.556.256-1.223.383-2.002.383Zm8.759-4.703L111.996 452h-2.181l3.699-9.953h1.387l-.198 1.702Zm2.249 8.251-2.714-8.251-.218-1.702h1.401L119.14 452h-2.188Zm-.123-3.705v1.606h-5.257v-1.606h5.257Zm7.83-.663h-2.557l-.013-1.408h2.146c.378 0 .688-.048.93-.144.241-.1.421-.244.54-.431a1.26 1.26 0 0 0 .184-.697c0-.31-.059-.56-.177-.752a.98.98 0 0 0-.54-.417c-.242-.086-.554-.13-.937-.13h-1.422V452h-2.051v-9.953h3.473c.579 0 1.096.055 1.552.164.46.109.85.276 1.169.499.319.223.563.506.731.848.169.337.253.738.253 1.203 0 .41-.093.788-.28 1.135-.182.346-.472.628-.868.847-.392.219-.905.34-1.538.362l-.595.527ZM124.57 452h-3.028l.8-1.6h2.228c.36 0 .654-.057.882-.171.228-.118.396-.278.506-.478.109-.201.164-.431.164-.69 0-.292-.05-.545-.151-.759a1.011 1.011 0 0 0-.464-.492c-.215-.119-.497-.178-.848-.178h-1.976l.014-1.408h2.461l.472.553c.606-.009 1.093.098 1.463.322.373.218.644.503.813.854.173.351.26.727.26 1.128 0 .638-.139 1.176-.417 1.613-.278.433-.686.759-1.224.978-.533.219-1.185.328-1.955.328Zm5.813-9.953h2.058v8.353h2.775v-8.353h2.051v8.353h2.748v-8.353h2.044V452h-11.676v-9.953Zm16.109 6.726 3.999-6.726h2.05V452h-2.05v-6.727L146.492 452h-2.051v-9.953h2.051v6.726Zm10.338-6.726 1.873 3.473 1.873-3.473h2.345l-2.892 4.935 2.967 5.018h-2.365l-1.928-3.541-1.927 3.541h-2.379l2.973-5.018-2.898-4.935h2.358Z" fill="#2D3F71"/><path d="M201.252 403.801h38.952v25.773c0 9.566-7.54 21.158-19.583 25.097-12.147-4.113-19.276-14.743-19.369-27.348-.02-2.611-.012-5.33 0-8.28v-15.242Z" fill="#fff"/><path fill-rule="evenodd" clip-rule="evenodd" d="M220.974 421.67h.37l17.371-16.213v-.324l-17.741 16.537Zm-.169-12.321c.264 0 .525.046.773.136H221.831c.217.109.422.242.61.395.096.082.181.176.253.279.192.208.35.444.468.701v.525c.074.208.113.427.117.648v.396a2.329 2.329 0 0 1-.117.584V413.343a2.852 2.852 0 0 1-1.299 1.349h.02-.24c-.253.07-.512.118-.773.143v-5.499l-.065.013Zm-.207 12.321v-3.074a.181.181 0 0 0 .188-.188v-.531l.305.324a.242.242 0 0 0 .305 0 .196.196 0 0 0 0-.299l-.61-.648v-1.822c.31-.006.616-.06.909-.163l.467 1.116a.214.214 0 0 0 .341.048.176.176 0 0 0 .041-.063.189.189 0 0 0-.005-.147l-.448-1.083a3.62 3.62 0 0 0 .649-.441l2.142 2.12a.167.167 0 0 0 .058.04.16.16 0 0 0 .069.014.16.16 0 0 0 .068-.014.167.167 0 0 0 .058-.04.204.204 0 0 0 .054-.139.204.204 0 0 0-.054-.139l-2.116-2.121c.253-.255.458-.554.604-.882l1.097.421a.18.18 0 0 0 .082.023.19.19 0 0 0 .155-.064.199.199 0 0 0 .042-.075.18.18 0 0 0 .004-.156.176.176 0 0 0-.049-.063.191.191 0 0 0-.072-.034l-1.091-.415c.07-.237.116-.481.137-.727h2.843a.183.183 0 0 0 .155-.04.185.185 0 0 0 .05-.224.189.189 0 0 0-.205-.105h-2.843a3.195 3.195 0 0 0-.137-.83l1.091-.422a.173.173 0 0 0 .108-.088.202.202 0 0 0 .019-.069.189.189 0 0 0-.01-.07.18.18 0 0 0-.177-.134.183.183 0 0 0-.076.017l-1.097.396a3.119 3.119 0 0 0-.559-.837l2.104-2.127a.181.181 0 0 0 0-.259.187.187 0 0 0-.127-.049.187.187 0 0 0-.127.049l-2.096 2.075a2.788 2.788 0 0 0-.695-.467l.441-1.096a.174.174 0 0 0 .02-.073.174.174 0 0 0-.053-.139.18.18 0 0 0-.064-.041.214.214 0 0 0-.279.098l-.467 1.089a2.91 2.91 0 0 0-.909-.162v-1.771l.61-.603a.21.21 0 0 0 .063-.152.219.219 0 0 0-.016-.083.217.217 0 0 0-.117-.116.212.212 0 0 0-.235.047l-.305.304v-.538a.178.178 0 0 0-.015-.071.177.177 0 0 0-.173-.11v-.96h17.981l-18.033 16.783Zm-12.503 11.563c.102.043.202.09.299.143.144.051.285.112.422.182l-1.396-1.297a1.359 1.359 0 0 0-.325 0l1 .972Zm.812.422h-.325l4.447 4.183.116-.117c.028.091.043.184.046.279l.818.746c.027-.091.042-.185.045-.279l-5.147-4.812Zm-.65.045 4.681 4.378a.989.989 0 0 0-.091.233l-.721-.648a.192.192 0 0 0 .065-.136.231.231 0 0 1-.091.116l-4.167-3.891c.091-.026.208-.026.298-.052h.026Zm-.649.091 1.078 1.005a5.092 5.092 0 0 0-.61-.207l-.766-.727.162-.045c.039 0 .084-.026.13-.026h.006Zm-.59.156c.097.155.234.283.396.369l-.396-.369Zm1.7.882 2.545 2.36-.26.117-2.596-2.445.311-.032Zm-.649.116 2.72 2.536-.208.143-1.616-1.524h.045s-.071 0-.116-.046l-1.071-.998h.071c.039-.072.104-.072.201-.098l-.026-.013Zm-.539.163a.642.642 0 0 0-.207.142l.701.649.415.071-.909-.862Zm-.279.421.163.162a.54.54 0 0 1-.137-.149l-.026-.013Zm1.448.649 1.675 1.582-.208.136-.837-.772-.838-.791c.075-.045.153-.084.234-.116l-.026-.039Zm-.493.233.746.649c-.123.01-.247.01-.37 0l-.584-.558.208-.091Zm-.371.324a.29.29 0 0 0-.045.143c.112.082.237.144.37.182l-.325-.325Zm1.299.532.818.746c-.091 0-.163.071-.26.091l-.727-.655c.062-.043.121-.091.175-.143l-.006-.039Zm-.37.331.649.603c-.114.013-.23.013-.344 0l-.416-.363a.663.663 0 0 1 .117-.201l-.006-.039Zm2.499-.409.649.603c-.045.072-.117.143-.162.214l-.649-.648c.059-.051.113-.108.162-.169Zm-.351.37.65.648c-.046.072-.091.143-.143.214l-.721-.648a.654.654 0 0 1 .214-.188v-.026Zm-.376.331.746.72a1.2 1.2 0 0 0-.136.188l-.792-.746c.058-.049.118-.095.182-.136v-.026Zm-.37.35.792.739a.898.898 0 0 1-.188.143l-.766-.675a1.07 1.07 0 0 1 .162-.181v-.026Zm-.279.389.649.649a.472.472 0 0 1-.253.071l-.468-.422a.644.644 0 0 1 .072-.272v-.026Zm-.072.61v.071h.072l-.072-.071Zm2.143-1.401.746.7a1.517 1.517 0 0 1-.091.279l-.792-.72c.041-.089.086-.175.137-.259Zm-.299.421.857.792c-.046.09-.072.162-.117.259l-.883-.824c.046-.058.091-.129.143-.201v-.026Zm-.286.422.89.836a.645.645 0 0 1-.163.182l-.837-.811a.92.92 0 0 0 .11-.181v-.026Zm-.227.46a1.108 1.108 0 0 0-.052.279l.565.538c.078-.033.154-.072.227-.116l-.74-.701Zm0 .701.188.188h-.097c-.019-.046-.045-.091-.071-.162l-.02-.026Zm1.948-1.583.791.772a1.056 1.056 0 0 1-.045.279l-.785-.765c.036-.085.066-.171.09-.26l-.051-.026Zm-.208.493c-.048.08-.087.165-.117.253l.889.837a.381.381 0 0 0 .046-.143.383.383 0 0 0 .045-.136l-.863-.811Zm-.234.487c0 .09-.045.181-.071.278l.772.72a.747.747 0 0 0 .162-.188l-.863-.81Zm-.117.583.649.603a1.06 1.06 0 0 1-.227.117l-.376-.35a1.046 1.046 0 0 1 .006-.344l-.052-.026Zm1.701-1.167c0 .097-.045.188-.065.279l1.019.953.072-.162v-.091l-1.026-.979Zm-.117.584.935.862c-.045.065-.117.11-.169.182l-.727-.714a1.544 1.544 0 0 1 0-.304l-.039-.026Zm.052.719c.059.22.198.41.39.532a.29.29 0 0 0 .116-.045l-.506-.487Zm1.162-.648-7.517-7.03c.136 0 .279 0 .415.045l7.141 6.68c-.013.13.013.234.013.35l-.052-.045Zm-.071-.746-6.686-6.232h.376c-.234-.234-.772-.512-1.026-.726l-.233-.234a1.534 1.534 0 0 1-.208-.233 1.311 1.311 0 0 1-.234-.415l8.53 7.983c-.162.071-.279-.162-.467-.279l-.052.136Zm.649-.065-8.446-7.918c.15.009.298.033.442.071l8.199 7.659a2.52 2.52 0 0 1-.143.234l-.052-.046Zm.772.37a.429.429 0 0 0 0 .143c.01.069.01.138 0 .207l3.895 3.606v-.324l-3.895-3.632Zm-.071.603 3.934 3.703v.35l-3.999-3.742c.044-.086.083-.175.117-.266l-.052-.045Zm-.234.486v.124h.143l-.143-.124Zm.279.26 3.895 3.658v.324l-4.05-3.775a.926.926 0 0 0 .207-.162l-.052-.045Zm-.37.35 1.948 1.79a1.254 1.254 0 0 0-.377 0l-1.752-1.654.188-.065s.019-.026.045-.026l-.052-.045Zm-.61.091 1.915 1.796a.883.883 0 0 0-.214.136l-1.948-1.841v-.137c.096.042.196.072.299.091l-.052-.045Zm-.37.35 1.948 1.816a.494.494 0 0 0 .045.396l-2.266-2.141c.108-.011.217-.011.325 0l-.052-.071Zm-.604.143 2.98 2.769a.73.73 0 0 1-.377 0l-2.791-2.633a.511.511 0 0 1 .24-.091l-.052-.045Zm-.324.369 2.72 2.536c.071.26.35.376.259.584l-3.051-2.86a1.89 1.89 0 0 1 .124-.214l-.052-.046Zm-.098.584 2.889 2.698a1.35 1.35 0 0 1-.324 0l-1-.934a.365.365 0 0 0-.117-.162v.045l-1.422-1.297-.026-.35Zm0 .649v.045a.802.802 0 0 1-.045.233l.415.396.208-.136-.578-.538Zm-.214.467a.975.975 0 0 1-.233.116l.188.182a.538.538 0 0 0 .35 0h.046l-.351-.298Zm.838.116c.012.099.012.2 0 .299l.305.278.045-.045c.072-.091.046-.091.117-.136l-.467-.396Zm-.137.532a.335.335 0 0 0-.091.214.546.546 0 0 0 .325 0l-.234-.214Zm.649-.091v.305a.218.218 0 0 0 .189-.123l-.189-.182Zm.351.35c-.052.046-.117.091-.188.163l.603.557c.108-.012.217-.012.325 0l-.74-.72Zm-.396.279a1.24 1.24 0 0 1-.26.117l.468.441c.091 0 .188 0 .259-.045h.046l-.513-.513Zm-.513.208a.488.488 0 0 1-.188.071h-.091l.396.376c.1-.028.202-.045.305-.052l-.422-.395Zm-.558.162a1.21 1.21 0 0 1-.305.045l.37.351c.1-.026.202-.042.305-.046l-.37-.35Zm-.649.097.396.37-.279.071-.494-.467c.131.058.268.1.409.124l-.032-.098Zm-.883-.493.065-.278-.065-.046a1.17 1.17 0 0 0-.214.117l.214.207Zm-.422-.045a.293.293 0 0 1-.214 0 .652.652 0 0 1-.137-.35l-.116-.091a1.144 1.144 0 0 0-.137.188l1.513 1.414c.071 0 .162-.065.253-.091l-1.162-1.07Zm-.785-.013 1.467 1.375c-.046 0-.143.071-.208.117l-1.909-1.758c.018-.062.04-.123.065-.181.305.045.26.415.513.505.072-.019.072-.019.072-.058Zm-.747 0 1.746 1.654a1.07 1.07 0 0 1-.279.071l-1.999-1.881c.227 0 .279.227.487.299.045-.059.045-.104.071-.143h-.026Zm-.604.123c.054.235.155.456.299.649l.701.648c.161.078.335.125.513.136l-1.513-1.433Zm7.732-.583a.534.534 0 0 0 .136-.208 2.056 2.056 0 0 1-.415 0l.279.208Zm1.421-.396c-.007.1-.022.2-.045.298l1.279 1.207v-.351l-1.234-1.154Zm-.214.486-.065.072-.143.071 1.656 1.524v-.344l-1.448-1.323Zm-.441.26a2.264 2.264 0 0 0-.234.136l.305.305a.458.458 0 0 1 .188 0 .686.686 0 0 1-.117.097l1.721 1.602v-.35l-1.863-1.79Zm-.416.324.234.208a1.29 1.29 0 0 0-.26.116l-.071-.091a.445.445 0 0 1 .123-.246l-.026.013Zm.344.324 1.948 1.816v.324l-2.156-2.029c.075-.048.153-.089.234-.124l-.026.013Zm-.487.234 2.422 2.257v.324l-2.655-2.49.233-.091Zm-.486.207 2.908 2.724v.35l-3.142-2.957c.083-.05.17-.093.259-.13l-.025.013Zm-.468.26 3.376 3.164v.325l-3.558-3.366a.448.448 0 0 1 .208-.136l-.026.013Zm-.396.298 3.772 3.541v.324l-3.98-3.722.208-.143Zm-.513.188 3.285 3.074a.768.768 0 0 1-.253.117l-3.863-3.619a.567.567 0 0 1 .189-.162l.344.324.071.188a.29.29 0 0 0 .253.065l-.026.013Zm-.305-.603v-.084h-.045l.045.084Zm-.649.415 3.609 3.379a1.217 1.217 0 0 1-.305-.046.294.294 0 0 1-.162-.052l-3.142-2.931a.777.777 0 0 1 .052-.363l-.052.013Zm.162.837a.99.99 0 0 1-.162.168l2.071 1.946c.076-.043.154-.082.234-.117l-2.143-1.997Zm-.324.35a.783.783 0 0 0-.098.259l.701.649c.051-.066.105-.129.163-.188l-.766-.72Zm-.098.648c.056.294.223.555.468.727.045-.052 0 0 .071-.098l.046-.09-.585-.539Zm1.026.26a.072.072 0 0 0-.008.032.08.08 0 0 0 .008.033c.015.113.045.225.091.33 0 0 0 .072.045.091l.487.467c.125.06.267.076.403.045l-1.026-.998Zm3.901 1.556.072.117c.117.188.298.259.461.395l-.533-.512Zm.604-7.283-12.067-11.323c.279.123.538.279.817.422l11.244 10.519.006.382Zm0-.648-12.606-11.855a1.219 1.219 0 0 1-.111-.26 1.239 1.239 0 0 1-.097-.278l12.808 11.984.006.409Zm0-.701-12.859-12.088a.65.65 0 0 1 .045-.305l6.777 6.336a1.074 1.074 0 0 0 .889.811l5.194 4.838-.046.408Zm0-.694v-.402l-4.544-4.234-.279.071 4.823 4.565Zm0-.648-4.258-4.001.207-.137 4.045 3.736.006.402Zm0-.649v-.35l-3.681-3.554-.188.182 3.869 3.722Zm0-.7v-.324l-3.849-3.723a.928.928 0 0 1-.487-.116l4.336 4.163Zm0-.648v-.351l-3.246-3.002-.279.071 3.525 3.282Zm0-.649v-.35l-3.291-3.243h-.39l.461.448h.377a1.478 1.478 0 0 1-.143.181l2.986 2.964Zm0-.7v-.325l-2.772-2.594a.6.6 0 0 1-.207.117l2.979 2.802Zm0-.649v-.324l-2.447-2.309-.136.214 2.583 2.419Zm0-.648v-.325l-2.356-2.425c.013.099.013.199 0 .298l2.356 2.452Zm0-.649v-.324l-2.655-2.497c.091.173.169.353.234.538l2.421 2.283Zm0-.648v-.351l-5.608-5.24c-.396-.065-.935-.369-.935-.882l-.649-.603c0 .091-.046.188-.065.279l1.486 1.42h.163c.233.052.116 0 .142.098-.091.116.072 0-.071.045l5.537 5.234Zm0-.649v-.35l-5.258-4.935c.046.116 0 .304 0 .278v.046l5.258 4.961Zm0-.7v-.325l-5.589-5.24v.052a.374.374 0 0 0 0 .279l5.589 5.234Zm0-.649v-.324l-5.258-4.935a.564.564 0 0 0-.188.162l5.446 5.097Zm0-.648v-.325l-2.837-2.678a.816.816 0 0 1-.259.091l3.096 2.912Zm0-.649v-.35l-2.376-2.231a.647.647 0 0 1-.207.136l2.583 2.445Zm0-.7v-.351l-1.947-1.835c-.072.046-.143.117-.215.162l2.162 2.024Zm0-.701v-.324l-1.532-1.44c-.075.04-.147.085-.214.137l1.746 1.627Zm0-.648-1.298-1.265a1.346 1.346 0 0 1-.091-.37l1.396 1.298-.007.337Zm0-.649-1.558-1.465a5.09 5.09 0 0 1-.396-.72l1.948 1.842.006.343Zm0-.648-2.045-1.946a.715.715 0 0 1 .065-.305l1.974 1.753.006.498Zm-.006-.708v-.404l-1.74-1.679a1.933 1.933 0 0 0-.162.188l1.902 1.895Zm.006-.687v-.324l-1.238-1.327a.73.73 0 0 0-.253.097l1.491 1.554Zm0-.648v-.324l-.473-.424c-.256 0-.143-.144-.41-.069l.883.817Zm0-.649-.218-.099c-.382-.382-.178-.51-.178-.651l.396.396v.354Zm0-.839v-.211l-.396-.37v.253h.279a.305.305 0 0 1-.045.253l.162.075Zm-.032-.555-.13-.103.039-.251h.091v.354Zm-3.35 4.592-1.603-1.492a.441.441 0 0 1 .162 0c.091 0 .208.117.279.071l1.298 1.187a1.298 1.298 0 0 0-.136.234Zm.26-.441-1.422-1.297c0-.117.072-.117.117-.234l.344.324c-.045.143-.136.072 0 .26.188 0 .143 0 .208-.072l.863.792a.956.956 0 0 1-.11.207v.02Zm.091-.584-.422-.422c.207.052.376.15.422.402v.02Zm-1.143-1.09c.214-.071.091.046.162-.116-.071-.091 0-.046-.181-.072 0-.233 0-.207-.234-.207a.225.225 0 0 1 0 .136l.253.259Zm-.422-.071.052.045-.052-.045Zm-1.882 1.297-.649-.603v-.324a.687.687 0 0 0-.325 0l-.539-.513c.058-.053.121-.101.188-.142l1.467 1.375a.567.567 0 0 0-.11.214l-.032-.007Zm.253-.441a1.04 1.04 0 0 0 .123-.233l-1.298-1.187a.715.715 0 0 0-.234.117l1.409 1.303Zm.188-.486c0-.305-.188-.513-.532-.791a.744.744 0 0 0-.52-.189l1.052.98Zm-2.168-.357a1 1 0 0 1-.208.169l.422.395a.642.642 0 0 1 .253-.116l-.467-.448Zm-.415.285.415.415a.538.538 0 0 0-.11.234l-.539-.512c.075-.049.153-.093.234-.13v-.007Zm-.468.253a.846.846 0 0 0-.208.143l1.552 1.446a1.246 1.246 0 0 0-.299-.577l-1.045-1.012Zm-.37.325c0 .051 0 .071-.052.116v.188l1.584 1.492a.464.464 0 0 0 .143-.234l-1.675-1.562Zm.351 1.005 1.045.979a.745.745 0 0 0-.163.182l-.421-.37c.051-.071.071-.117.116-.188a.708.708 0 0 0-.233.071l-.559-.532.215-.123v-.019Zm-.422.298.441.422a.65.65 0 0 0-.279.045c-.234 0-.331-.091-.305-.279a.72.72 0 0 1 .143-.181v-.007Zm.766.726c-.012.1-.012.2 0 .299v.097l.305.253a.25.25 0 0 0 .253-.045v-.046c0-.045 0-.045-.045-.071l-.513-.487Zm1.493-1.297 1.025.928c-.746-.279-.98-.603-1.025-.928Zm1.447 1.297c-.071.072.046.098-.097.169h-.091l2.051 1.946s.046-.091.091-.163a.396.396 0 0 1 .137.046l-2.091-1.998Zm-.538.188c-.091 0-.189.046-.254.072l1.136 1.089c.125.026.244.075.351.143 0 0-.091 0-.136.045l.512.493c.141-.001.282.021.416.065l-2.025-1.907Zm-.487.208a.458.458 0 0 0-.117.162v.046l.746.7a.986.986 0 0 1 .279-.045h.046l-.954-.863Zm-.169.512a.86.86 0 0 0 .143.487l.188.188.182-.162-.513-.513Zm1.422.649a1.577 1.577 0 0 1-.163.045h-.117l.585.558a.43.43 0 0 1 .233-.136l-.538-.467Zm-.507.188-.214.13h-.045l.279.278c.094-.016.187-.038.279-.064l-.299-.344Zm-.565.162a.683.683 0 0 1-.324 0h-.046l.325.305h.331l-.286-.305Zm-.908-.162a.576.576 0 0 0 .486.441l-.486-.441Zm1.843.37a.602.602 0 0 0 0 .304l.325.325h.071a1.713 1.713 0 0 1-.071-.325l-.325-.304Zm1.117 3.748a.898.898 0 0 0 .117.551l.253.234.162.071a.851.851 0 0 0 .214 0h.091l-.837-.856Zm-1.422.396-4.096-3.891h.279v-.065l3.895 3.677a.97.97 0 0 0-.078.33v-.051Zm.234-.487-5.752-5.324a2.874 2.874 0 0 1-.324-.649l6.212 5.792-.136.181Zm.279-.395-6.453-6.051c0-.117 0-.233-.045-.376l6.615 6.245s0 .045-.046.091l-.071.091Zm-4.726-5.124c-.143-.162-.259-.343-.396-.512-.136-.169-.214-.324-.305-.46l-1-.908a1.543 1.543 0 0 0-.071.285l1.772 1.595Zm-1.071-1.621-.539-.493a.46.46 0 0 1 .221-.155l.071.071.247.577Zm12.412-5.143 17.02-15.875v.33l-16.65 15.565-.37-.02Zm.746 0 16.274-15.194v.343l-15.93 14.851h-.344Zm.721 0 15.579-14.52v.37l-15.209 14.15h-.37Zm.746 0 14.807-13.826v.35l-14.437 13.476h-.37Zm.721 0 14.086-13.126v.325l-13.716 12.801h-.37Zm.746 0 13.34-12.451v.324l-12.983 12.127h-.357Zm.721 0 12.619-11.777v.35l-12.223 11.427h-.396Zm.74 0 11.879-11.07v.35l-11.522 10.72h-.357Zm.727 0 11.152-10.421v.343l-10.782 10.078h-.37Zm.72 0 10.432-9.727v.35l-10.062 9.377h-.37Zm.747 0 9.685-9.027v.344l-9.315 8.683h-.37Zm.746 0 8.939-8.333v.331l-8.594 8.002h-.345Zm.721 0 8.218-7.659v.325l-7.848 7.334h-.37Zm.721 0 7.497-6.984v.35l-7.14 6.634h-.357Zm.746 0 6.751-6.31v.35l-6.381 5.96h-.37Zm.721 0 6.03-5.629v.344l-5.68 5.285h-.35Zm.72 0 5.31-4.935v.35l-4.959 4.611-.351-.026Zm.721 0 4.589-4.26v.324l-4.213 3.936h-.376Zm.746 0 3.843-3.586v.298l-3.518 3.243-.325.045Zm.701 0 3.142-2.912v.325l-2.772 2.594-.37-.007Zm.74 0 2.402-2.237v.331l-2.045 1.906h-.357Zm.727 0 1.675-1.556v.344l-1.298 1.212h-.377Zm.721 0 .954-.888v.357l-.578.531h-.376Zm.746 0 .208-.188v.188h-.208Z" fill="#EC1C24"/><path fill-rule="evenodd" clip-rule="evenodd" d="M240.514 403.125v23.95a25.314 25.314 0 0 1-.539 6.187c-2.285 10.473-8.128 17.782-18.767 21.44-.772.259-.448.259-1.214 0-10.665-3.794-16.813-11.427-18.955-22.439a26.045 26.045 0 0 1-.324-5.415v-23.723h39.799Zm-21.779 6.959 1.701 1.699v-2.445c-.244.025-.485.07-.721.136h-.364a3.521 3.521 0 0 0-.616.61Zm1.701 4.954v-2.347l-1.649 1.647c.164.162.352.298.558.402h.188c.276.162.584.264.903.298Zm-1.948-.979 1.655-1.647h-2.349c.02.204.059.406.116.603V413.339a3.3 3.3 0 0 0 .591.72h-.013Zm-.694-2.043h2.304l-1.655-1.673a2.585 2.585 0 0 0-.396.649v.35a2.28 2.28 0 0 0-.24.674h-.013Zm15.313 21.22 1.019-.954a1.522 1.522 0 0 0-.344 0l-1.396 1.297.416-.181c.117-.065.181-.098.305-.162Zm-.773.421-5.193 4.832c.031.09.048.184.052.278l.838-.745a.591.591 0 0 1 .045-.279c0 .045.065.071.091.117l4.472-4.164c-.116-.013-.207-.039-.305-.039Zm.649.046-4.673 4.377c0 .065.065.162.091.233l.701-.648a.28.28 0 0 1-.052-.136l.071.117 4.168-3.892c-.091-.026-.208-.026-.306-.051Zm.65.09-1.071 1.006a4.98 4.98 0 0 1 .61-.208l.766-.726-.182-.046c-.071 0-.091-.026-.123-.026Zm.584.169-.396.37c.151-.1.279-.231.376-.383l.02.013Zm-1.701.882-2.551 2.348c.065 0 .136.071.227.116l2.597-2.445c-.124.007-.247-.019-.292-.019h.019Zm.61.117-2.739 2.535.214.143 1.649-1.537h-.046a.464.464 0 0 1 .117-.045l1.071-.999h-.071a2.16 2.16 0 0 0-.214-.097h.019Zm.559.162-.909.862.402-.09.695-.649-.188-.123Zm.279.421-.163.162c.052-.05.1-.104.143-.162h.02Zm-1.448.649-1.675 1.582.215.136.856-.81.864-.791c-.111-.026-.182-.072-.279-.091l.019-.026Zm.493.233-.746.649c.117.01.234.01.35 0l.604-.558-.208-.091Zm.344.325-.324.324c.142-.036.276-.098.396-.182a.93.93 0 0 0-.091-.116l.019-.026Zm-1.298.531-.792.746c.084.037.171.068.26.091l.74-.694-.208-.143Zm.396.331-.649.603c.108.013.217.013.325 0l.415-.421a.343.343 0 0 0-.091-.156v-.026Zm-2.486-.421-.649.603c.071.071.117.142.188.214l.649-.649a1.071 1.071 0 0 1-.188-.168Zm.344.369-.695.649c.046.071.117.142.163.214l.72-.649a.728.728 0 0 0-.188-.188v-.026Zm.377.331-.773.72a.91.91 0 0 1 .162.188l.792-.746a.644.644 0 0 1-.181-.136v-.026Zm.35.35-.792.765c.067.052.136.099.208.143l.74-.7a.621.621 0 0 0-.156-.182v-.026Zm.299.389-.649.649a.576.576 0 0 0 .279.071l.467-.421c-.052-.085-.071-.176-.097-.273v-.026Zm.071.61-.091.091h.091v-.091Zm-2.168-1.401-.747.7c.052.091.072.189.117.279l.792-.745a2.322 2.322 0 0 0-.162-.234Zm.305.422-.844.791c.032.09.073.177.123.259l.864-.823a1.305 1.305 0 0 0-.143-.201v-.026Zm.279.421-.889.837a.88.88 0 0 0 .169.181l.863-.81a.648.648 0 0 1-.143-.182v-.026Zm.253.461-.766.7.253.117.559-.539a1.086 1.086 0 0 0-.046-.252v-.026Zm-.045.7-.188.188h.123a.312.312 0 0 0 .065-.162v-.026Zm-1.948-1.582-.817.771c0 .091.045.182.071.279l.837-.791a.822.822 0 0 1-.097-.233l.006-.026Zm.208.492-.889.837a.364.364 0 0 1 .045.136l.072.143.883-.837c-.046-.097-.072-.162-.117-.253l.006-.026Zm.208.487-.863.811c.051.066.107.129.168.188l.792-.72a1.078 1.078 0 0 0-.104-.253l.007-.026Zm.143.584-.649.603c.067.046.138.085.214.116l.396-.35c.019-.113.029-.228.032-.344l.007-.025Zm-1.727-1.168-1.019.979a.461.461 0 0 1 0 .091c.027.053.051.107.071.162l1-.953a1.163 1.163 0 0 0-.059-.253l.007-.026Zm.143.584-.928.862c.047.064.099.125.155.182l.792-.739c-.006-.072-.026-.188-.026-.279l.007-.026Zm-.046.72-.538.486a.288.288 0 0 0 .142.046c.178-.126.314-.302.39-.506l.006-.026Zm-1.168-.649 7.562-7.03c-.136 0-.279 0-.415.046l-7.147 6.679a1.584 1.584 0 0 0 0 .351v-.046Zm.071-.746 6.686-6.232h-.376c.214-.233.772-.512 1.026-.726.09-.091.116-.136.214-.234a.657.657 0 0 0 .208-.233c.098-.125.174-.265.227-.415l-8.439 7.938c.169.071.26-.162.467-.279l-.013.181Zm-.649-.064 8.491-7.919a3.064 3.064 0 0 0-.467.072l-8.173 7.658c.041.082.088.16.143.234l.006-.045Zm-.792.369-3.895 3.632v.324l3.895-3.606v-.35Zm.091.603-3.96 3.703v.351l4.07-3.742a.978.978 0 0 1-.129-.266l.019-.046Zm.214.487-.123.123h.143a.311.311 0 0 0-.026-.078l.006-.045Zm-.259.259-3.895 3.658v.324l4.05-3.774a.595.595 0 0 1-.129-.162l-.026-.046Zm.35.35-1.915 1.81c.114-.02.23-.02.344 0l1.818-1.699-.188-.065h-.065l.006-.046Zm.649.091-1.908 1.797.214.136 1.947-1.842v-.136a1.02 1.02 0 0 1-.285.091l.032-.046Zm.325.422-1.948 1.816a.647.647 0 0 1-.051.395l2.343-2.211a1.797 1.797 0 0 0-.344 0Zm.584.142-2.96 2.769a.635.635 0 0 0 .351 0l2.817-2.632a1.164 1.164 0 0 0-.188-.163l-.02.026Zm.344.37-2.72 2.536c-.091.259-.35.376-.279.583l3.071-2.86a.988.988 0 0 0-.052-.285l-.02.026Zm.098.584-2.889 2.697a1.1 1.1 0 0 0 .324 0l1.007-.933a.253.253 0 0 1 .11-.163v.046l1.422-1.297.026-.35Zm0 .648-.559.538c.072.046.117.091.182.137l.448-.396a1.603 1.603 0 0 1-.071-.233v-.046Zm.207.467-.324.324c.122.04.254.04.376 0l.182-.181a1.627 1.627 0 0 1-.214-.143h-.02Zm-.837.117-.396.395c.071.046.052.046.117.137l.045.045.279-.279a1.857 1.857 0 0 1-.026-.298h-.019Zm.162.532-.234.214a.562.562 0 0 0 .325 0 .477.477 0 0 0-.071-.214h-.02Zm-.649-.091-.208.181a.246.246 0 0 0 .182.124l.026-.305Zm-.37.35-.708.694c.108-.013.217-.013.325 0l.61-.558c-.071-.013-.143-.091-.188-.136h-.039Zm.415.279-.506.486c.087.011.174.026.26.046l.487-.441a.99.99 0 0 1-.195-.091h-.046Zm.513.207-.441.415c.104.003.206.02.305.052l.396-.376h-.071a.406.406 0 0 1-.15-.091h-.039Zm.559.163-.37.35c.1.005.2.021.298.045l.377-.35a1.147 1.147 0 0 1-.267-.045h-.038Zm.649.097-.396.369.279.072.487-.467c-.115.03-.232.047-.351.052l-.019-.026Zm.863-.493.208-.208a.549.549 0 0 0-.15-.116l-.064.045.006.279Zm.422-.045-1.142 1.07c.09 0 .162.071.253.09l1.519-1.413a.647.647 0 0 0-.169-.188l-.091.09c-.045.143-.045.253-.162.351a.291.291 0 0 1-.189 0h-.019Zm.811-.085-1.447 1.375.208.117 1.915-1.771a.411.411 0 0 0-.098-.181c-.279.045-.253.415-.506.506-.026-.007-.052-.007-.072-.046Zm.773 0-1.772 1.654c.089.036.183.06.279.071l2.025-1.88c-.227 0-.279.227-.487.298a.29.29 0 0 1-.045-.143Zm.584.123-1.493 1.414c.178-.015.351-.061.513-.136l.701-.648c.135-.193.228-.412.273-.643l.006.013Zm-7.725-.596.26-.26a1.64 1.64 0 0 1-.396 0c.039.09.085.177.136.26Zm-1.415-.396-1.24 1.142v.376l1.299-1.194a.716.716 0 0 1-.052-.324h-.007Zm.182.487-1.422 1.297v.382l1.63-1.53a.304.304 0 0 0-.111-.072s-.065-.051-.091-.077h-.006Zm.467.259-1.889 1.764v.35l1.727-1.602c-.045-.045-.097-.071-.117-.097a.426.426 0 0 1 .188 0l.325-.305-.234-.11Zm.422.324-.233.208c.081.032.159.071.233.117l.091-.091a.84.84 0 0 0-.084-.234h-.007Zm-.35.325-1.948 1.815v.325l2.181-2.017c-.09-.052-.155-.098-.227-.123h-.006Zm.461.233-2.422 2.257v.324l2.681-2.49-.259-.091Zm.493.208-2.915 2.723v.351l3.168-2.958a2.418 2.418 0 0 0-.247-.116h-.006Zm.487.259-3.402 3.165v.324l3.59-3.353a.423.423 0 0 0-.182-.136h-.006Zm.396.298-3.798 3.541v.324l4.006-3.722a1.89 1.89 0 0 1-.202-.143h-.006Zm.513.188-3.279 3.074a.87.87 0 0 0 .234.117l3.895-3.632a.555.555 0 0 0-.182-.162l-.35.324c0 .07-.026.137-.072.189a.237.237 0 0 1-.24.09h-.006Zm.279-.603.071-.071h-.058l-.013.071Zm.649.415-3.609 3.379c.103-.003.205-.018.305-.045a.406.406 0 0 0 .162-.052l3.155-2.932a.552.552 0 0 0 0-.35h-.013Zm-.162.837-2.143 2.004c.076.031.148.07.215.116l2.09-1.945a.505.505 0 0 1-.156-.175h-.006Zm.324.35-.798.746a.44.44 0 0 1 .169.188l.72-.649a.775.775 0 0 0-.084-.285h-.007Zm.072.649-.585.538.072.091c.052.097 0 .045.071.097a1.1 1.1 0 0 0 .448-.746l-.006.02Zm-1 .259-1.071.999a.578.578 0 0 0 .396-.046l.487-.467s.045-.071.071-.09c.026-.02.071-.208.097-.331a.09.09 0 0 1 .026-.084l-.006.019Zm-3.836 1.569-.559.513a2.39 2.39 0 0 0 .461-.396l.098-.117Zm-.65-7.282 12.087-11.324c-.259.124-.538.279-.792.422l-11.275 10.519-.02.383Zm0-.649 12.62-11.855c.045-.097.091-.168.136-.259.045-.091.071-.188.097-.279l-12.833 11.984-.02.409Zm0-.7 12.899-12.089a1.089 1.089 0 0 0-.046-.305l-6.777 6.336a1.106 1.106 0 0 1-.863.811l-5.193 4.838-.02.409Zm0-.694 4.823-4.495-.279-.071-4.544 4.235v.331Zm0-.649 4.285-4.001-.208-.136-4.057 3.735-.02.402Zm0-.648 3.895-3.613c-.071-.064-.117-.136-.162-.181l-3.707 3.443-.026.351Zm0-.701 4.356-4.053a.92.92 0 0 1-.487.117l-3.895 3.612.026.324Zm0-.648 3.519-3.282-.279-.071-3.246 3.003.006.35Zm0-.649 3.006-2.821a.324.324 0 0 1-.136-.181h.344l.493-.448h-.422l-3.285 3.074v.376Zm0-.7 3.006-2.795a1.279 1.279 0 0 1-.234-.117l-2.772 2.594v.318Zm0-.649 2.597-2.419a.584.584 0 0 1-.143-.214l-2.467 2.309.013.324Zm0-.648 2.402-2.238a1.143 1.143 0 0 1 0-.298l-2.376 2.212-.026.324Zm0-.649 2.448-2.282c.047-.188.116-.368.207-.539l-2.655 2.497v.324Zm0-.648 5.57-5.188c-.143-.046 0 .071-.071-.046 0-.097-.117-.045.142-.097h.137l1.512-1.42c0-.091-.045-.188-.065-.279l-.649.603c0 .512-.558.817-.954.882l-5.615 5.24-.007.305Zm0-.649 5.291-4.961v-.045a.573.573 0 0 1 0-.279l-5.291 4.935v.35Zm0-.7 5.635-5.234c.01-.092.01-.186 0-.279v-.051l-5.589 5.24-.046.324Zm0-.649 5.525-5.194a.488.488 0 0 0-.208-.162l-5.317 5.011v.345Zm0-.648 3.123-2.912a1.126 1.126 0 0 1-.279-.091l-2.844 2.679v.324Zm0-.649 2.597-2.445a.573.573 0 0 1-.208-.136l-2.402 2.231.013.35Zm0-.7 2.188-2.023a.991.991 0 0 1-.208-.163l-1.947 1.836-.033.35Zm0-.7 1.773-1.628-.208-.136-1.565 1.439v.325Zm0-.649 1.379-1.252c0-.09-.068-.152-.042-.288l-1.337 1.178v.362Zm0-.649 1.584-1.465c.117-.234.279-.441.396-.72l-1.98 1.84v.345Zm0-.648 2.052-1.946a1.203 1.203 0 0 0-.046-.304l-1.986 1.752-.02.498Zm.02-.715 1.869-1.749a1.038 1.038 0 0 0-.162-.188l-1.707 1.531v.406Zm0-.689 1.499-1.385a1.188 1.188 0 0 0-.259-.097l-1.24 1.154v.328Zm0-.644.889-.831c-.256-.072-.23.116-.493.116l-.396.376v.339Zm-.02-.643.234-.208c.084-.147.135-.476.084-.657l-.318.494v.371Zm.02-.846.188-.043a.411.411 0 0 1-.065-.253h.299v-.253l-.422.37v.179Zm-.02-.555.143-.11-.039-.234h-.104v.344Zm3.421 4.598 1.584-1.492a.345.345 0 0 0-.143 0c-.09 0-.207.117-.298.072l-1.247 1.167a.931.931 0 0 1 .104.253Zm-.253-.441 1.415-1.297c0-.117-.065-.117-.11-.234l-.351.325c0 .142.137.071 0 .259-.162 0-.142 0-.214-.071l-.857.791a.813.813 0 0 0 .117.207v.02Zm-.117-.584.442-.421a.563.563 0 0 0-.442.402v.019Zm1.162-1.07.26-.259a.284.284 0 0 0 0-.136c-.188 0-.208 0-.208.207-.188 0-.143 0-.214.071.045.143-.084.026.162.098v.019Zm.416-.071-.013.026v-.046l.013.02Zm1.889 1.297.649-.603v-.325a.606.606 0 0 1 .305 0l.558-.512c-.071-.045-.117-.097-.188-.143l-1.467 1.375c.053.061.101.126.143.195v.013Zm-.26-.441 1.402-1.297a.979.979 0 0 0-.233-.117l-1.299 1.187a.996.996 0 0 0 .13.24v-.013Zm-.208-.487 1.052-.979a.764.764 0 0 0-.539.182c-.324.272-.513.48-.513.784v.013Zm2.194-.356-.467.447a.622.622 0 0 1 .234.117l.441-.396a.995.995 0 0 1-.208-.181v.013Zm.416.285-.441.415a.4.4 0 0 1 .136.234l.539-.513-.234-.136Zm.467.253-1.071.966a1.41 1.41 0 0 0-.279.577l1.558-1.439-.208-.104Zm.37.324-1.674 1.55a.722.722 0 0 0 .116.234l1.604-1.492a.74.74 0 0 0 0-.188c-.02-.045-.046-.065-.046-.11v.006Zm-.337.992-1.052.98c.072.065.117.136.162.181l.396-.369c0-.072-.065-.117-.09-.188.08.014.158.038.233.071l.558-.532a1.056 1.056 0 0 1-.207-.123v-.02Zm.415.299-.461.421h.046c.095-.005.19.01.279.046.208 0 .324-.091.279-.279a.797.797 0 0 0-.149-.188h.006Zm-.792.726-.513.487s-.045.045-.045.071c0 .026-.045 0 0 .045a.259.259 0 0 0 .26.046l.279-.253c0-.052 0-.072.045-.098a.572.572 0 0 0-.032-.298h.006Zm-1.493-1.297-1.025.928c.766-.286.999-.61 1.019-.934l.006.006Zm-1.34 1.375-2.044 1.898a.508.508 0 0 1 .163-.046c.052.072.052.143.071.163l1.985-1.846h-.091c-.136-.052-.046-.078-.091-.15l.007-.019Zm.438.11-2.006 1.907a1.09 1.09 0 0 1 .396-.065l.539-.493c-.072 0-.123 0-.143-.045a.939.939 0 0 1 .325-.143l1.168-1.089a2.521 2.521 0 0 0-.286-.052l.007-.02Zm.487.208-.909.888c.103 0 .206.015.305.046l.721-.701a.086.086 0 0 0 0-.045.306.306 0 0 0-.124-.169l.007-.019Zm.182.512-.533.512a.64.64 0 0 1 .188.163l.208-.189c.08-.143.124-.303.13-.466l.007-.02Zm-1.442.649-.512.492a.35.35 0 0 1 .214.137l.597-.513h-.091c-.026 0-.143-.045-.214-.071l.006-.045Zm.539.188-.324.304.298.065.279-.279a.108.108 0 0 1-.071 0l-.182-.09Zm.533.162-.28.279h.325l.325-.305h-.046a.675.675 0 0 1-.331.071l.007-.045Zm.934-.162-.493.441a.582.582 0 0 0 .303-.125.582.582 0 0 0 .184-.271l.006-.045Zm-1.863.369-.331.305c-.014.11-.036.218-.065.324h.091l.325-.324a.731.731 0 0 0-.026-.259l.006-.046Zm-1.097 3.749-.863.817h.117a.957.957 0 0 0 .214 0l.162-.071.234-.234a.97.97 0 0 0 .13-.467l.006-.045Zm1.422.395 4.102-3.891h-.311v-.065l-3.895 3.677c.026.143.071.234.097.325l.007-.046Zm-.234-.486 5.752-5.376c.126-.204.228-.422.305-.649l-6.2 5.791.143.234Zm-.279-.396 6.452-6.05v-.376l-6.575 6.238s0 .046.045.091a.957.957 0 0 1 .072.143l.006-.046Zm4.706-5.123 1.759-1.628a1.066 1.066 0 0 0-.045-.285l-1 .96c-.117.136-.207.298-.324.46-.117.162-.26.376-.396.538l.006-.045Zm1.065-1.628.532-.493a.406.406 0 0 0-.162-.181l-.072.071-.298.603Zm-11.685-5.142-17.728-16.544v.324l17.371 16.213.357.007Zm.37 0-17.981-16.784h-.117v21.926a26.367 26.367 0 0 0 .305 5.091c2.026 10.376 7.725 17.51 17.787 21.064 9.854-3.372 15.436-10.007 17.579-20.104.394-1.904.566-3.848.512-5.791v-22.186h-18.091v.96a.195.195 0 0 0-.182.181v.539l-.305-.305a.212.212 0 0 0-.153-.063.212.212 0 0 0-.152.063.216.216 0 0 0 0 .305l.61.603v1.77a3.113 3.113 0 0 0-.863.188l-.468-1.122a.19.19 0 0 0-.041-.064.185.185 0 0 0-.138-.053.19.19 0 0 0-.074.02.18.18 0 0 0-.121.098.173.173 0 0 0 .004.155l.487 1.141a3.288 3.288 0 0 0-.746.513l-1.143-1.161v-.856a.208.208 0 0 0-.208-.208.228.228 0 0 0-.086.01.207.207 0 0 0-.127.113.212.212 0 0 0-.02.085v.441l-.37-.37a.175.175 0 0 0-.234 0 .269.269 0 0 0-.065.188c0 .046 0 .065.046.091l.116.117.26.253h-.441a.228.228 0 0 0-.157.059.23.23 0 0 0-.077.148.227.227 0 0 0 .234.214h.857l1.142 1.161a4.52 4.52 0 0 0-.487.772l-1.142-.422a.201.201 0 1 0-.137.37l1.136.447a2.84 2.84 0 0 0-.149.746h-1.811l-.649-.648a.216.216 0 0 0-.305.304l.305.331h-.513a.208.208 0 0 0-.208.208.203.203 0 0 0 .208.188h.513l-.305.305a.213.213 0 0 0 .158.35.219.219 0 0 0 .147-.052l.61-.603h1.85c.005.253.044.503.117.746l-1.136.441a.19.19 0 0 0-.073.035.2.2 0 0 0-.07.217.226.226 0 0 0 .279.124l1.169-.448c.12.306.291.588.506.837l-1.162 1.18h-.857a.208.208 0 0 0-.147.354.208.208 0 0 0 .147.061h.442l-.26.234-.117.142s-.045.046-.045.065a.29.29 0 0 0 .065.188.215.215 0 0 0 .116.046.215.215 0 0 0 .117-.046l.37-.376v.441a.224.224 0 0 0 .147.202c.028.01.057.014.087.012a.205.205 0 0 0 .194-.133.2.2 0 0 0 .014-.081v-.849l1.188-1.168c.207.192.444.35.701.467l-.494 1.135a.221.221 0 0 0-.017.077.197.197 0 0 0 .057.144.206.206 0 0 0 .141.062.207.207 0 0 0 .144-.056.205.205 0 0 0 .045-.065l.487-1.135c.28.094.57.155.864.182v1.835l-.611.649a.2.2 0 0 0-.069.149.196.196 0 0 0 .069.149.24.24 0 0 0 .305 0l.306-.324v.493a.195.195 0 0 0 .054.129.204.204 0 0 0 .127.059v3.1Zm-1.097 0-17.001-15.876v.331l16.651 15.564.35-.019Zm-.714 0-16.287-15.195v.344l15.904 14.851h.383Zm-.727 0-15.579-14.521v.37l15.177 14.151h.402Zm-.766 0-14.794-13.827v.35l14.437 13.477h.357Zm-.72 0-14.074-13.126v.324l13.717 12.802h.357Zm-.721 0-13.353-12.452v.324l12.983 12.128h.37Zm-.727 0-12.626-11.777v.35l12.224 11.427h.402Zm-.746 0-11.88-11.071v.351l11.503 10.72h.377Zm-.74 0-11.14-10.422v.344l10.783 10.078h.357Zm-.728 0-10.386-9.728v.35l10.062 9.378h.324Zm-.72 0-9.692-9.028v.344l9.289 8.684h.403Zm-.747 0-8.945-8.334v.331l8.569 8.003h.376Zm-.74 0-8.205-7.659v.324l7.848 7.335h.357Zm-.727 0-7.478-6.985v.35l7.108 6.635h.37Zm-.72 0-6.751-6.31v.35l6.4 5.96h.351Zm-.721 0-6.03-5.63v.344l5.66 5.286h.37Zm-.746 0-5.284-4.936v.351l4.933 4.611.351-.026Zm-.721 0-4.544-4.261v.324l4.213 3.937h.331Zm-.72 0-3.843-3.587v.299l3.492 3.242.351.046Zm-.721 0-3.122-2.912v.324l2.772 2.594.35-.006Zm-.727 0-2.395-2.238v.331l2.051 1.907h.344Zm-.72 0-1.675-1.557v.344l1.298 1.213h.377Zm-.747 0-.928-.863v.331l.584.532h.344Zm-.721 0-.207-.189v.189h.207Z" fill="#1B3A78"/><path fill-rule="evenodd" clip-rule="evenodd" d="M200.012 402h41.269v27.287c0 10.603-8.192 22.912-20.519 26.664l-.162.049-.16-.054c-12.356-4.184-20.323-14.474-20.428-28.609a793.18 793.18 0 0 1 0-8.737V402Zm1.056 1.052h39.161v26.235c0 10.099-7.823 21.934-19.612 25.607-11.847-4.076-19.451-13.947-19.553-27.563v-8.729l.005-1.198.004-1.249a1222.6 1222.6 0 0 0-.005-13.103Z" fill="#fff"/><path d="M283.895 405.13v1.755h-5.405v-1.755h5.405Zm1.598 0V416h-2.24v-10.87h2.24Zm-7.287 0h2.232l-.276 5.458a15.72 15.72 0 0 1-.231 2.127c-.11.602-.259 1.115-.448 1.538a3.1 3.1 0 0 1-.702 1.015 2.544 2.544 0 0 1-.97.56 4.342 4.342 0 0 1-1.277.172h-.553v-1.747l.284-.022c.244-.025.458-.09.642-.194.184-.105.341-.262.471-.471.134-.209.243-.475.328-.799a7.68 7.68 0 0 0 .209-1.202 20.02 20.02 0 0 0 .112-1.657l.179-4.778Zm11.393 7.346 4.367-7.346h2.24V416h-2.24v-7.346L289.599 416h-2.24v-10.87h2.24v7.346Zm15.685-7.346v1.755h-4.898V416h-2.232v-10.87h7.13Zm4.3 1.859L306.627 416h-2.381l4.039-10.87h1.515l-.216 1.859ZM312.04 416l-2.964-9.011-.239-1.859h1.531l4.061 10.87h-2.389Zm-.134-4.046v1.754h-5.741v-1.754h5.741Zm-54.264 12.35h1.152v2.718c0 .45.066.802.197 1.057.132.255.331.434.598.537.266.104.599.156.997.156a8.567 8.567 0 0 0 1.989-.245c.211-.052.418-.108.621-.168v.944c-.195.06-.39.116-.585.167-.191.052-.39.096-.598.132a7.37 7.37 0 0 1-.656.083 9 9 0 0 1-.771.03c-.613 0-1.141-.087-1.583-.263a2.034 2.034 0 0 1-1.009-.86c-.235-.394-.352-.917-.352-1.57v-2.718Zm5.261 0h1.153V433h-1.153v-8.696Zm8.744 7.758V433h-4.605v-.938h4.605Zm-4.372-7.758V433h-1.152v-8.696h1.152Zm3.763 3.739v.938h-3.996v-.938h3.996Zm.549-3.739v.944h-4.545v-.944h4.545Zm1.852 0h1.117l2.848 7.089 2.843-7.089h1.123L277.834 433h-.872l-3.523-8.696Zm-.365 0h.986l.161 5.304V433h-1.147v-8.696Zm7.669 0h.985V433h-1.146v-3.392l.161-5.304Zm9.651 0V433h-1.146v-7.752h-4.288V433h-1.153v-8.696h6.587Zm3.291 6.701 4.282-6.701h1.153V433h-1.153v-6.707L293.685 433h-1.146v-8.696h1.146v6.701Zm14.226-2.628v.55c0 .653-.081 1.238-.244 1.756a3.806 3.806 0 0 1-.705 1.32 3.063 3.063 0 0 1-1.105.83 3.466 3.466 0 0 1-1.433.286c-.514 0-.986-.095-1.416-.286a3.19 3.19 0 0 1-1.111-.83 3.885 3.885 0 0 1-.722-1.32c-.172-.518-.257-1.103-.257-1.756v-.55c0-.653.083-1.236.251-1.75a3.87 3.87 0 0 1 .722-1.319 3.105 3.105 0 0 1 1.105-.837c.43-.191.902-.286 1.416-.286.529 0 1.007.095 1.433.286.43.192.798.47 1.105.837.31.362.547.802.711 1.319.167.514.25 1.097.25 1.75Zm-1.14.55v-.562c0-.517-.054-.975-.161-1.373a2.865 2.865 0 0 0-.46-1.004 1.994 1.994 0 0 0-.747-.615 2.27 2.27 0 0 0-.991-.209c-.359 0-.683.07-.974.209a2.07 2.07 0 0 0-.74.615 3.006 3.006 0 0 0-.472 1.004 5.086 5.086 0 0 0-.167 1.373v.562c0 .521.055.983.167 1.385.111.399.271.735.478 1.01.211.271.459.476.746.615.291.139.615.209.974.209.374 0 .706-.07.997-.209a1.94 1.94 0 0 0 .735-.615c.203-.275.356-.611.459-1.01.104-.402.156-.864.156-1.385Zm8.546-.884v.938h-4.706v-.938h4.706Zm-4.527-3.739V433h-1.152v-8.696h1.152Zm5.531 0V433h-1.147v-8.696h1.147Zm8.743 4.073v.55c0 .653-.081 1.238-.245 1.756a3.788 3.788 0 0 1-.704 1.32 3.063 3.063 0 0 1-1.105.83 3.468 3.468 0 0 1-1.434.286c-.513 0-.985-.095-1.415-.286a3.19 3.19 0 0 1-1.111-.83 3.887 3.887 0 0 1-.723-1.32c-.171-.518-.256-1.103-.256-1.756v-.55c0-.653.083-1.236.25-1.75a3.89 3.89 0 0 1 .723-1.319 3.105 3.105 0 0 1 1.105-.837c.43-.191.902-.286 1.415-.286.53 0 1.008.095 1.434.286.43.192.798.47 1.105.837.31.362.547.802.71 1.319.168.514.251 1.097.251 1.75Zm-1.14.55v-.562c0-.517-.054-.975-.162-1.373a2.847 2.847 0 0 0-.46-1.004 2 2 0 0 0-.746-.615 2.272 2.272 0 0 0-.992-.209c-.358 0-.682.07-.973.209-.287.14-.534.345-.741.615-.203.271-.36.606-.471 1.004a5.084 5.084 0 0 0-.168 1.373v.562c0 .521.056.983.168 1.385.111.399.27.735.477 1.01.211.271.46.476.747.615.291.139.615.209.973.209.375 0 .707-.07.998-.209.29-.139.535-.344.734-.615.203-.275.357-.611.46-1.01.104-.402.156-.864.156-1.385Zm5.966.006h-2.204l-.012-.926h2.001c.33 0 .619-.056.866-.167a1.31 1.31 0 0 0 .573-.478c.14-.211.209-.462.209-.752 0-.319-.061-.578-.185-.777a1.023 1.023 0 0 0-.555-.442c-.247-.095-.562-.143-.944-.143h-1.696V433h-1.153v-8.696h2.849c.446 0 .844.046 1.195.138.35.087.647.226.89.418.246.187.433.426.561.716.127.291.191.639.191 1.045 0 .359-.092.683-.275.974a2.109 2.109 0 0 1-.764.705c-.323.183-.701.3-1.135.352l-.412.281Zm-.054 4.067h-2.604l.651-.938h1.953c.367 0 .677-.063.932-.191.259-.127.456-.306.591-.537.136-.235.203-.512.203-.83 0-.323-.057-.602-.173-.837a1.195 1.195 0 0 0-.543-.543c-.247-.128-.566-.191-.956-.191h-1.642l.012-.926h2.245l.245.335c.418.035.772.155 1.063.358.291.199.512.454.663.764.155.311.233.653.233 1.028 0 .541-.119.999-.358 1.373a2.244 2.244 0 0 1-.998.848c-.43.191-.935.287-1.517.287Zm-62.686 13.377v.55a5.84 5.84 0 0 1-.245 1.756 3.774 3.774 0 0 1-.705 1.32 3.054 3.054 0 0 1-1.105.83 3.466 3.466 0 0 1-1.433.286c-.514 0-.986-.095-1.416-.286a3.177 3.177 0 0 1-1.11-.83 3.87 3.87 0 0 1-.723-1.32 5.586 5.586 0 0 1-.257-1.756v-.55c0-.653.084-1.236.251-1.75.171-.517.412-.957.723-1.319.31-.367.678-.645 1.104-.837.43-.191.902-.286 1.416-.286.529 0 1.007.095 1.433.286.43.192.799.47 1.105.837.311.362.548.802.711 1.319.167.514.251 1.097.251 1.75Zm-1.141.55v-.562c0-.517-.054-.975-.161-1.373a2.865 2.865 0 0 0-.46-1.004 1.994 1.994 0 0 0-.747-.615 2.268 2.268 0 0 0-.991-.209c-.358 0-.683.07-.974.209-.286.14-.533.345-.74.615-.203.271-.36.606-.472 1.004a5.127 5.127 0 0 0-.167 1.373v.562c0 .521.056.983.167 1.385.112.399.271.735.478 1.01.211.271.46.476.746.615.291.139.616.209.974.209.374 0 .707-.07.997-.209a1.94 1.94 0 0 0 .735-.615c.203-.275.356-.611.46-1.01.103-.402.155-.864.155-1.385Zm5.966.006h-2.203l-.012-.926h2c.331 0 .62-.056.866-.167.247-.112.438-.271.574-.478.139-.211.209-.462.209-.752 0-.319-.062-.578-.185-.777a1.029 1.029 0 0 0-.556-.442c-.247-.095-.561-.143-.943-.143h-1.697V451h-1.152v-8.696h2.849c.446 0 .844.046 1.194.138.351.087.647.226.89.418.247.187.434.426.561.716.128.291.192.639.192 1.045 0 .359-.092.683-.275.974a2.104 2.104 0 0 1-.765.705c-.322.183-.7.3-1.134.352l-.413.281Zm-.053 4.067h-2.604l.651-.938h1.953c.366 0 .677-.063.931-.191.259-.127.456-.306.592-.537.135-.235.203-.512.203-.83 0-.323-.058-.602-.173-.837a1.197 1.197 0 0 0-.544-.543c-.247-.128-.565-.191-.956-.191h-1.642l.012-.926h2.246l.245.335c.418.035.772.155 1.063.358.29.199.511.454.663.764.155.311.232.653.232 1.028 0 .541-.119.999-.358 1.373a2.24 2.24 0 0 1-.997.848c-.43.191-.936.287-1.517.287Zm5.781-8.696V451h-1.153v-8.696h1.153Zm5.357 0-3.774 4.784h-2.043l-.179-.956h1.535l3.034-3.828h1.427ZM281.902 451l-3.267-4.061.645-1.01 4.031 5.071h-1.409Zm8.015-4.808v.944h-3.566v-.944h3.566Zm-5.686 2.043h1.147c.063.41.169.76.316 1.051.151.291.372.514.663.669.291.151.681.227 1.171.227.386 0 .72-.08 1.003-.239.283-.163.516-.386.699-.669.183-.283.318-.611.406-.985.091-.375.137-.775.137-1.201v-.872c0-.37-.032-.713-.095-1.027a3.335 3.335 0 0 0-.287-.854 2.269 2.269 0 0 0-.478-.651 1.926 1.926 0 0 0-.657-.412 2.273 2.273 0 0 0-.83-.144c-.446 0-.81.08-1.093.239-.279.16-.494.386-.645.681a3.393 3.393 0 0 0-.31 1.045h-1.147c.06-.573.217-1.077.472-1.511.255-.438.607-.78 1.057-1.027.454-.247 1.009-.37 1.666-.37.538 0 1.021.095 1.451.286.43.192.797.464 1.099.819.307.354.54.78.699 1.278a5.31 5.31 0 0 1 .245 1.66v.86a5.31 5.31 0 0 1-.245 1.66 3.719 3.719 0 0 1-.687 1.273c-.298.35-.657.621-1.075.812a3.268 3.268 0 0 1-1.385.286c-.697 0-1.278-.125-1.744-.376a2.76 2.76 0 0 1-1.081-1.033 3.788 3.788 0 0 1-.472-1.475Zm13.629 0h1.147a3.66 3.66 0 0 1-.472 1.475 2.76 2.76 0 0 1-1.081 1.033c-.466.251-1.047.376-1.744.376a3.31 3.31 0 0 1-1.392-.286 3.099 3.099 0 0 1-1.069-.812 3.834 3.834 0 0 1-.693-1.273 5.434 5.434 0 0 1-.238-1.66v-.866c0-.609.079-1.161.238-1.654.164-.498.397-.924.699-1.278a3.127 3.127 0 0 1 1.105-.819c.43-.191.914-.286 1.451-.286.657 0 1.213.123 1.667.37.454.247.806.589 1.057 1.027.255.434.412.938.472 1.511h-1.147a3.188 3.188 0 0 0-.311-1.045 1.613 1.613 0 0 0-.645-.681c-.278-.159-.643-.239-1.093-.239a2.26 2.26 0 0 0-1.021.221 2.077 2.077 0 0 0-.735.627 2.916 2.916 0 0 0-.441.974c-.1.378-.15.798-.15 1.26v.878c0 .426.044.826.132 1.201.091.374.229.702.412.985.183.283.416.506.698.669.283.159.618.239 1.004.239.49 0 .88-.078 1.17-.233.291-.155.51-.378.657-.669a3.39 3.39 0 0 0 .323-1.045Z" fill="#2D3F71"/><path d="M309.148 449.656V451h-5.949v-1.147l2.813-3.016c.283-.314.506-.591.669-.83.163-.243.281-.46.353-.651a1.59 1.59 0 0 0-.018-1.23.976.976 0 0 0-.389-.442 1.154 1.154 0 0 0-.621-.155c-.262 0-.489.063-.681.191-.187.127-.33.304-.43.531a1.98 1.98 0 0 0-.143.771h-1.726c0-.518.123-.992.37-1.422a2.719 2.719 0 0 1 1.046-1.033c.449-.259.983-.388 1.6-.388.609 0 1.123.099 1.541.298.422.195.741.478.956.848.219.367.328.805.328 1.314 0 .287-.046.568-.137.842a3.837 3.837 0 0 1-.394.813 6.618 6.618 0 0 1-.61.812c-.239.275-.503.559-.794.854l-1.511 1.696h3.727Zm6.928-3.768v1.505c0 .653-.07 1.216-.209 1.69-.14.47-.341.856-.603 1.159a2.386 2.386 0 0 1-.926.662 3.182 3.182 0 0 1-1.195.215 3.49 3.49 0 0 1-.979-.131 2.471 2.471 0 0 1-.818-.424 2.703 2.703 0 0 1-.622-.723 3.718 3.718 0 0 1-.394-1.051 6.425 6.425 0 0 1-.137-1.397v-1.505c0-.653.07-1.213.209-1.679.143-.469.344-.854.603-1.152.263-.299.574-.518.932-.657a3.173 3.173 0 0 1 1.194-.215c.351 0 .675.046.974.137.302.088.575.225.818.412.243.187.45.428.621.723.171.29.303.639.394 1.045.092.402.138.864.138 1.386Zm-1.726 1.732v-1.965c0-.315-.018-.59-.054-.825a2.476 2.476 0 0 0-.149-.597 1.283 1.283 0 0 0-.251-.406.924.924 0 0 0-.341-.227 1.19 1.19 0 0 0-.424-.071c-.195 0-.368.037-.519.113a.96.96 0 0 0-.376.364 1.947 1.947 0 0 0-.239.657 5.36 5.36 0 0 0-.078.992v1.965c0 .314.016.591.048.83.036.239.087.444.155.615.072.167.155.305.251.412a.908.908 0 0 0 .34.227c.132.048.275.072.43.072.191 0 .361-.038.508-.114a.993.993 0 0 0 .382-.37c.108-.171.187-.394.239-.669.052-.275.078-.609.078-1.003Zm8.845 2.036V451h-5.949v-1.147l2.813-3.016c.283-.314.506-.591.669-.83.164-.243.281-.46.353-.651a1.59 1.59 0 0 0-.018-1.23.98.98 0 0 0-.388-.442 1.16 1.16 0 0 0-.622-.155c-.262 0-.489.063-.68.191a1.202 1.202 0 0 0-.43.531 1.963 1.963 0 0 0-.144.771h-1.726c0-.518.124-.992.37-1.422a2.719 2.719 0 0 1 1.046-1.033c.45-.259.983-.388 1.6-.388.609 0 1.123.099 1.541.298.422.195.741.478.956.848.219.367.328.805.328 1.314 0 .287-.046.568-.137.842a3.837 3.837 0 0 1-.394.813 6.618 6.618 0 0 1-.61.812c-.238.275-.503.559-.794.854l-1.511 1.696h3.727Zm7.023 0V451h-5.948v-1.147l2.813-3.016c.283-.314.506-.591.669-.83.163-.243.281-.46.352-.651a1.53 1.53 0 0 0 .114-.555c0-.263-.044-.488-.132-.675a.974.974 0 0 0-.388-.442 1.154 1.154 0 0 0-.621-.155c-.263 0-.49.063-.681.191-.187.127-.33.304-.43.531a1.98 1.98 0 0 0-.143.771h-1.726c0-.518.123-.992.37-1.422a2.716 2.716 0 0 1 1.045-1.033c.45-.259.984-.388 1.601-.388.609 0 1.123.099 1.541.298.422.195.74.478.955.848.219.367.329.805.329 1.314 0 .287-.046.568-.138.842a3.79 3.79 0 0 1-.394.813c-.167.267-.37.537-.609.812s-.504.559-.794.854l-1.511 1.696h3.726Z" fill="#E21F26"/><path d="M54.857 367.67h1.504c.482 0 .88-.081 1.192-.244.312-.169.543-.404.693-.703.156-.306.234-.661.234-1.065 0-.364-.071-.687-.214-.967a1.462 1.462 0 0 0-.635-.664c-.287-.162-.648-.244-1.084-.244-.345 0-.664.069-.957.205a1.758 1.758 0 0 0-.703.576c-.176.248-.264.547-.264.899h-2.822c0-.781.208-1.462.625-2.041.423-.58.99-1.032 1.699-1.358a5.562 5.562 0 0 1 2.344-.488c.963 0 1.806.156 2.529.469.723.306 1.286.758 1.69 1.357.403.599.605 1.341.605 2.227 0 .449-.104.885-.313 1.309a3.673 3.673 0 0 1-.898 1.132 4.467 4.467 0 0 1-1.406.801c-.554.195-1.175.293-1.866.293h-1.953v-1.494Zm0 2.139v-1.455h1.953c.775 0 1.456.087 2.042.263.586.176 1.077.43 1.474.762.397.325.697.713.899 1.162.201.443.302.934.302 1.475 0 .664-.127 1.256-.38 1.777-.254.514-.612.95-1.075 1.309-.456.358-.99.631-1.601.82a6.998 6.998 0 0 1-2.002.273 6.496 6.496 0 0 1-1.768-.244 5.254 5.254 0 0 1-1.562-.752 3.858 3.858 0 0 1-1.114-1.269c-.273-.515-.41-1.123-.41-1.826h2.822c0 .364.092.69.274.976.182.287.433.511.752.674.325.163.687.244 1.084.244.45 0 .833-.081 1.152-.244.326-.169.573-.404.742-.703a2.1 2.1 0 0 0 .264-1.065c0-.521-.094-.937-.283-1.25a1.681 1.681 0 0 0-.81-.703c-.352-.15-.769-.224-1.25-.224h-1.505Zm18.465-2.139h1.504c.482 0 .88-.081 1.192-.244.312-.169.543-.404.693-.703a2.31 2.31 0 0 0 .234-1.065c0-.364-.071-.687-.214-.967a1.462 1.462 0 0 0-.635-.664c-.287-.162-.648-.244-1.084-.244-.345 0-.664.069-.957.205a1.757 1.757 0 0 0-.703.576c-.176.248-.264.547-.264.899h-2.822c0-.781.208-1.462.625-2.041.423-.58.99-1.032 1.699-1.358a5.562 5.562 0 0 1 2.344-.488c.963 0 1.806.156 2.529.469.723.306 1.286.758 1.69 1.357.403.599.605 1.341.605 2.227 0 .449-.104.885-.313 1.309a3.673 3.673 0 0 1-.898 1.132 4.468 4.468 0 0 1-1.406.801c-.554.195-1.175.293-1.866.293h-1.953v-1.494Zm0 2.139v-1.455h1.953c.775 0 1.456.087 2.041.263.586.176 1.078.43 1.475.762.397.325.697.713.898 1.162.202.443.303.934.303 1.475 0 .664-.127 1.256-.38 1.777-.255.514-.613.95-1.075 1.309-.456.358-.99.631-1.602.82a6.997 6.997 0 0 1-2.001.273 6.496 6.496 0 0 1-1.768-.244 5.255 5.255 0 0 1-1.563-.752 3.86 3.86 0 0 1-1.113-1.269c-.273-.515-.41-1.123-.41-1.826h2.822c0 .364.091.69.274.976.182.287.433.511.752.674.325.163.687.244 1.084.244.449 0 .833-.081 1.152-.244.326-.169.573-.404.742-.703a2.1 2.1 0 0 0 .264-1.065c0-.521-.094-.937-.283-1.25a1.682 1.682 0 0 0-.81-.703c-.352-.15-.77-.224-1.25-.224h-1.505Zm19.174-2.168v2.461c0 1.067-.114 1.988-.342 2.763-.228.768-.556 1.4-.986 1.895a3.902 3.902 0 0 1-1.514 1.084 5.223 5.223 0 0 1-1.953.351 5.71 5.71 0 0 1-1.601-.215 4.008 4.008 0 0 1-1.338-.693 4.388 4.388 0 0 1-1.016-1.182c-.28-.481-.495-1.054-.644-1.718-.15-.664-.225-1.426-.225-2.285v-2.461c0-1.068.114-1.983.342-2.745.234-.768.563-1.396.986-1.884.43-.489.938-.847 1.523-1.074.587-.235 1.238-.352 1.954-.352.573 0 1.103.075 1.591.225.495.143.941.367 1.338.673.397.306.736.7 1.016 1.182.28.475.495 1.045.645 1.709.15.658.224 1.413.224 2.266Zm-2.822 2.832v-3.213c0-.515-.03-.964-.088-1.348a3.937 3.937 0 0 0-.244-.976 2.068 2.068 0 0 0-.41-.665 1.507 1.507 0 0 0-.557-.371 1.964 1.964 0 0 0-.693-.117c-.32 0-.603.062-.85.186-.24.123-.446.322-.615.595-.17.267-.3.625-.39 1.075-.085.442-.128.983-.128 1.621v3.213c0 .514.026.966.078 1.357.059.391.144.726.254 1.006.117.273.254.498.41.674.163.169.349.293.557.371.215.078.45.117.703.117.313 0 .59-.062.83-.186.248-.13.456-.332.625-.605.176-.28.306-.645.39-1.094.085-.449.128-.996.128-1.64Zm15.306-2.832v2.461c0 1.067-.113 1.988-.341 2.763-.228.768-.557 1.4-.987 1.895a3.898 3.898 0 0 1-1.513 1.084 5.223 5.223 0 0 1-1.953.351 5.71 5.71 0 0 1-1.602-.215 4.007 4.007 0 0 1-1.338-.693 4.386 4.386 0 0 1-1.015-1.182c-.28-.481-.495-1.054-.645-1.718-.15-.664-.225-1.426-.225-2.285v-2.461c0-1.068.114-1.983.342-2.745.234-.768.563-1.396.986-1.884.43-.489.938-.847 1.524-1.074.586-.235 1.237-.352 1.953-.352.573 0 1.104.075 1.592.225.495.143.941.367 1.338.673.397.306.735.7 1.015 1.182.28.475.495 1.045.645 1.709.15.658.224 1.413.224 2.266Zm-2.822 2.832v-3.213c0-.515-.029-.964-.088-1.348a3.924 3.924 0 0 0-.244-.976 2.07 2.07 0 0 0-.41-.665 1.506 1.506 0 0 0-.557-.371 1.96 1.96 0 0 0-.693-.117c-.319 0-.602.062-.85.186-.24.123-.446.322-.615.595-.17.267-.3.625-.39 1.075-.085.442-.127.983-.127 1.621v3.213c0 .514.026.966.078 1.357.058.391.143.726.254 1.006.117.273.253.498.41.674.162.169.348.293.556.371.215.078.45.117.704.117.312 0 .589-.062.83-.186a1.64 1.64 0 0 0 .625-.605c.175-.28.306-.645.39-1.094.085-.449.127-.996.127-1.64Z" fill="url(#a)"/><path d="m127.547 373.725-.186 5.703h-2.734V376h-1.162v-2.275h4.082ZM114.021 376v-14.219h2.92v11.934h5.723v-11.934h2.94V376h-11.583Zm25.864-2.285V376h-7.569v-2.285h7.569Zm-6.612-11.934V376h-2.929v-14.219h2.929Zm5.625 5.791v2.227h-6.582v-2.227h6.582Zm.977-5.791v2.295h-7.559v-2.295h7.559Zm12.201 5.791v2.285h-7.422v-2.285h7.422Zm-6.553-5.791V376h-2.929v-14.219h2.929Zm8.643 0V376h-2.92v-14.219h2.92Zm13.031 5.791v2.285h-7.422v-2.285h7.422Zm-6.552-5.791V376h-2.93v-14.219h2.93Zm8.642 0V376h-2.92v-14.219h2.92Zm5.483 5.186h3.32c1.113 0 2.073.185 2.881.556.814.372 1.435.892 1.865 1.563.436.671.654 1.452.654 2.344a4.53 4.53 0 0 1-.371 1.855 4.141 4.141 0 0 1-1.074 1.445 4.977 4.977 0 0 1-1.699.938c-.664.221-1.416.332-2.256.332h-5.235v-14.219h2.94v11.934h2.295c.553 0 1.012-.104 1.377-.313.371-.208.648-.485.83-.83.182-.351.273-.739.273-1.162 0-.403-.091-.768-.273-1.094a1.896 1.896 0 0 0-.83-.781c-.365-.189-.824-.283-1.377-.283h-3.32v-2.285Zm12.9-5.186V376h-2.92v-14.219h2.92Zm6.137 0 2.675 4.961 2.676-4.961h3.35l-4.131 7.051 4.238 7.168h-3.379l-2.754-5.059-2.753 5.059h-3.399l4.248-7.168-4.14-7.051h3.369Zm28.845 0V376h-2.929v-11.924h-5.713V376h-2.93v-14.219h11.572Zm9.096 9.151h-3.623v-2.286h3.623c.56 0 1.016-.091 1.367-.273.352-.189.609-.449.772-.781a2.53 2.53 0 0 0 .244-1.123c0-.423-.082-.817-.244-1.182a1.98 1.98 0 0 0-.772-.879c-.351-.221-.807-.332-1.367-.332h-2.607V376h-2.93v-14.219h5.537c1.113 0 2.067.202 2.861.606.801.397 1.413.947 1.836 1.65.423.703.635 1.507.635 2.412 0 .918-.212 1.712-.635 2.383-.423.671-1.035 1.188-1.836 1.553-.794.364-1.748.547-2.861.547Zm11.176.459 5.713-9.61h2.929V376h-2.929v-9.609L242.924 376h-2.93v-14.219h2.93v9.61Zm17.494-2.207h-2.207v-1.553h1.758c.514 0 .931-.078 1.25-.235.319-.162.553-.39.703-.683.15-.293.224-.638.224-1.035 0-.326-.084-.625-.253-.899-.163-.273-.417-.491-.762-.654-.345-.169-.785-.254-1.319-.254-.403 0-.771.072-1.103.215a1.908 1.908 0 0 0-.791.605c-.195.254-.293.564-.293.928h-2.92c0-.625.134-1.185.4-1.68a3.857 3.857 0 0 1 1.114-1.269 5.19 5.19 0 0 1 1.64-.801 6.889 6.889 0 0 1 1.953-.273c.801 0 1.524.088 2.168.263.645.17 1.198.424 1.661.762.462.339.817.759 1.064 1.26.247.501.371 1.084.371 1.748 0 .488-.111.947-.332 1.377-.221.43-.537.807-.947 1.133a4.74 4.74 0 0 1-1.475.771 6.264 6.264 0 0 1-1.904.274Zm-2.207-.85h2.207c.775 0 1.462.081 2.061.244.605.163 1.116.401 1.533.713.423.313.742.7.957 1.162.221.456.332.98.332 1.572 0 .664-.137 1.254-.41 1.768-.267.514-.648.95-1.143 1.309-.488.358-1.068.628-1.738.81a8.304 8.304 0 0 1-2.198.274 7.915 7.915 0 0 1-1.904-.235 5.846 5.846 0 0 1-1.719-.742 3.789 3.789 0 0 1-1.23-1.279c-.306-.521-.459-1.146-.459-1.875h2.939c0 .345.101.66.303.947.202.28.482.505.84.674.358.163.768.244 1.23.244.541 0 1-.085 1.377-.254.385-.169.674-.4.87-.693.201-.3.302-.629.302-.987 0-.384-.052-.709-.156-.976a1.594 1.594 0 0 0-.459-.655 1.831 1.831 0 0 0-.752-.38 3.962 3.962 0 0 0-1.025-.118h-1.758v-1.523Zm21.937.225v.673c0 1.081-.146 2.051-.439 2.911-.293.859-.706 1.591-1.24 2.197a5.379 5.379 0 0 1-1.914 1.377c-.736.319-1.553.478-2.451.478-.892 0-1.709-.159-2.452-.478a5.505 5.505 0 0 1-1.914-1.377c-.54-.606-.96-1.338-1.259-2.197-.293-.86-.44-1.83-.44-2.911v-.673c0-1.088.147-2.058.44-2.911.292-.859.706-1.591 1.24-2.197a5.438 5.438 0 0 1 1.914-1.387c.742-.319 1.559-.478 2.451-.478.898 0 1.715.159 2.451.478.742.319 1.38.782 1.914 1.387.541.606.957 1.338 1.25 2.197.3.853.449 1.823.449 2.911Zm-2.959.673v-.693c0-.755-.068-1.419-.205-1.992-.136-.573-.338-1.055-.605-1.445a2.611 2.611 0 0 0-.977-.879 2.788 2.788 0 0 0-1.318-.303c-.495 0-.934.101-1.318.303a2.63 2.63 0 0 0-.967.879c-.261.39-.459.872-.596 1.445-.137.573-.205 1.237-.205 1.992v.693c0 .749.068 1.413.205 1.993.137.573.339 1.058.606 1.455.267.39.592.687.976.888.384.202.824.303 1.319.303a2.79 2.79 0 0 0 1.318-.303c.384-.201.706-.498.967-.888.26-.397.459-.882.595-1.455.137-.58.205-1.244.205-1.993Zm11.635.528h-3.652l-.02-2.012h3.067c.54 0 .983-.068 1.328-.205.345-.143.602-.348.771-.615.176-.274.264-.606.264-.996 0-.443-.085-.801-.254-1.075-.163-.273-.42-.472-.771-.595-.345-.124-.791-.186-1.338-.186h-2.031V376h-2.93v-14.219h4.961c.827 0 1.566.078 2.217.235.657.156 1.214.394 1.669.713.456.319.805.722 1.045 1.21.241.482.362 1.055.362 1.719 0 .586-.134 1.127-.401 1.621-.26.495-.673.899-1.24 1.211-.56.313-1.292.485-2.197.518l-.85.752Zm-.127 6.24h-4.326l1.143-2.285h3.183c.515 0 .935-.082 1.26-.244.326-.17.566-.397.723-.684.156-.286.234-.615.234-.986 0-.417-.072-.778-.215-1.084a1.447 1.447 0 0 0-.664-.703c-.306-.17-.709-.254-1.211-.254h-2.822l.019-2.012h3.516l.674.791c.866-.013 1.562.14 2.09.459.534.313.921.719 1.162 1.221.247.501.371 1.038.371 1.611 0 .912-.199 1.68-.596 2.305-.397.618-.98 1.084-1.748 1.396-.761.313-1.692.469-2.793.469Z" fill="#2D3F71"/><defs><linearGradient id="a" x1="173.5" y1="358" x2="173.5" y2="381" gradientUnits="userSpaceOnUse"><stop stop-color="red"/><stop offset="1" stop-color="#D00707"/></linearGradient></defs></svg>