<svg width="360" height="249" fill="none" xmlns="http://www.w3.org/2000/svg"><g clip-path="url(#a)"><g filter="url(#b)"><path d="M158.377 18.393c0 8.112-30.683 12.097-38.795 12.097-8.112 0-2.851-3.985-2.851-12.097s19.191-16.416 27.303-16.416c8.112 0 14.343 8.304 14.343 16.416Z" fill="#FFE6A6" fill-opacity=".6"/></g><g filter="url(#c)"><path d="M147.576 7.332c.968-.138 1.44 1.613 1.555 2.506-1.18 1.382-4.06 5.08-6.134 8.813-2.074 3.732-5.415 5.126-6.826 5.357-1.296.46-4.355 1.106-6.221 0-1.866-1.106.086-3.341 1.296-4.32 1.267-1.642 3.646-5.547 3.024-8.036-.622-2.488 2.448-3.917 4.061-4.32 2.679.058 8.277.138 9.245 0Z" fill="#FFE39C"/></g><g filter="url(#d)"><path d="M145.832 9.154c.763-.107 1.135 1.258 1.226 1.953-.931 1.078-3.201 3.96-4.835 6.87-1.634 2.908-4.267 3.995-5.379 4.174-1.022.36-3.432.862-4.903 0-1.471-.862.068-2.604 1.021-3.367.999-1.28 2.874-4.323 2.384-6.262-.491-1.94 1.929-3.053 3.2-3.368 2.111.045 6.523.108 7.286 0Z" fill="#F8E0A5"/></g><g filter="url(#e)"><path d="M143.936 11.051c.545-.077.811.903.876 1.402-.665.774-2.286 2.843-3.453 4.932-1.168 2.088-3.048 2.868-3.843 2.997-.729.258-2.451.62-3.502 0-1.051-.619.049-1.87.73-2.417.713-.919 2.052-3.104 1.702-4.496-.35-1.393 1.378-2.192 2.286-2.418 1.508.032 4.66.078 5.204 0Z" fill="#FDFDFD"/></g><g filter="url(#f)"><path d="M142.755 12.085c.419-.059.624.693.674 1.077-.511.594-1.759 2.183-2.657 3.787-.897 1.603-2.344 2.202-2.955 2.301-.562.198-1.886.476-2.694 0-.808-.475.037-1.435.561-1.856.549-.705 1.579-2.383 1.31-3.452-.27-1.07 1.06-1.683 1.758-1.857 1.16.025 3.584.06 4.003 0Z" fill="#FCF9F0"/></g><g filter="url(#g)"><path d="M140.923 15.01c0 .954-1.81 1.737-2.765 1.737-.954 0-.95-1.465-.95-2.42 0-.954 2.07-1.296 3.024-1.296.954 0 .691 1.025.691 1.98Z" fill="#fff"/></g><g filter="url(#h)"><path d="M39.314 21.328c0 4.075-5.43 2.506-9.504 2.506-.937-2.39-2.074-2.06-2.074-6.135 0-4.075 7.503-7.785 11.578-7.785 4.075 0 0 7.339 0 11.414Z" fill="#FFF6A9" fill-opacity=".6"/></g><g filter="url(#i)"><path d="M39.31 11.05c.486-.069.724.81.782 1.26-.593.694-2.04 2.551-3.082 4.426-1.041 1.875-2.72 2.575-3.428 2.691-.652.232-2.188.556-3.126 0-.937-.555.044-1.678.652-2.17.636-.825 1.831-2.786 1.519-4.036-.313-1.25 1.23-1.968 2.04-2.17 1.345.029 4.157.07 4.643 0Z" fill="#FFE39A"/></g><g filter="url(#j)"><path d="M38.434 11.964c.383-.054.57.631.615.98-.467.542-1.607 1.99-2.428 3.451-.821 1.462-2.144 2.007-2.702 2.098-.513.18-1.724.432-2.463 0-.739-.433.034-1.308.513-1.692.502-.643 1.443-2.171 1.197-3.146-.246-.974.97-1.533 1.608-1.691 1.06.022 3.277.054 3.66 0Z" fill="#FFFAEE"/></g><g filter="url(#k)"><path d="M37.481 12.916c.274-.039.407.454.44.704-.334.39-1.148 1.429-1.735 2.478-.586 1.049-1.53 1.44-1.93 1.505-.366.13-1.231.311-1.759 0-.528-.31.025-.939.367-1.214.358-.461 1.03-1.559.855-2.258-.176-.7.692-1.101 1.148-1.215.757.016 2.34.04 2.614 0Z" fill="#FFF8E7"/></g><g filter="url(#l)"><path d="M36.889 13.44c.21-.03.313.347.338.54a13.241 13.241 0 0 0-1.334 1.902c-.452.806-1.178 1.106-1.485 1.156-.282.1-.947.239-1.353 0s.018-.72.282-.932c.275-.355.793-1.197.657-1.734-.135-.537.533-.846.884-.933.582.013 1.8.03 2.01 0Z" fill="#FCF9F0"/></g><g filter="url(#m)"><path d="M35.968 14.908c0 .48-.91.872-1.389.872s-.477-.736-.477-1.215c0-.48 1.04-.65 1.52-.65.478 0 .346.514.346.993Z" fill="#fff"/></g></g><defs><filter id="h" x="23.396" y="5.574" width="22.069" height="22.895" filterUnits="userSpaceOnUse" color-interpolation-filters="sRGB"><feFlood flood-opacity="0" result="BackgroundImageFix"/><feBlend in="SourceGraphic" in2="BackgroundImageFix" result="shape"/><feGaussianBlur stdDeviation="2.17" result="effect1_foregroundBlur_7292_121551"/></filter><filter id="b" x="106.413" y="-6.664" width="60.604" height="45.792" filterUnits="userSpaceOnUse" color-interpolation-filters="sRGB"><feFlood flood-opacity="0" result="BackgroundImageFix"/><feBlend in="SourceGraphic" in2="BackgroundImageFix" result="shape"/><feGaussianBlur stdDeviation="4.32" result="effect1_foregroundBlur_7292_121551"/></filter><filter id="d" x="127.876" y="5.692" width="22.638" height="20.393" filterUnits="userSpaceOnUse" color-interpolation-filters="sRGB"><feFlood flood-opacity="0" result="BackgroundImageFix"/><feBlend in="SourceGraphic" in2="BackgroundImageFix" result="shape"/><feGaussianBlur stdDeviation="1.728" result="effect1_foregroundBlur_7292_121551"/></filter><filter id="e" x="130.987" y="8.455" width="16.417" height="14.86" filterUnits="userSpaceOnUse" color-interpolation-filters="sRGB"><feFlood flood-opacity="0" result="BackgroundImageFix"/><feBlend in="SourceGraphic" in2="BackgroundImageFix" result="shape"/><feGaussianBlur stdDeviation="1.296" result="effect1_foregroundBlur_7292_121551"/></filter><filter id="f" x="133.061" y="10.354" width="12.096" height="10.886" filterUnits="userSpaceOnUse" color-interpolation-filters="sRGB"><feFlood flood-opacity="0" result="BackgroundImageFix"/><feBlend in="SourceGraphic" in2="BackgroundImageFix" result="shape"/><feGaussianBlur stdDeviation=".864" result="effect1_foregroundBlur_7292_121551"/></filter><filter id="g" x="136.517" y="12.34" width="5.131" height="5.097" filterUnits="userSpaceOnUse" color-interpolation-filters="sRGB"><feFlood flood-opacity="0" result="BackgroundImageFix"/><feBlend in="SourceGraphic" in2="BackgroundImageFix" result="shape"/><feGaussianBlur stdDeviation=".346" result="effect1_foregroundBlur_7292_121551"/></filter><filter id="c" x="118.81" y="-3.044" width="40.69" height="38.03" filterUnits="userSpaceOnUse" color-interpolation-filters="sRGB"><feFlood flood-opacity="0" result="BackgroundImageFix"/><feBlend in="SourceGraphic" in2="BackgroundImageFix" result="shape"/><feGaussianBlur stdDeviation="5.184" result="effect1_foregroundBlur_7292_121551"/></filter><filter id="i" x="24.861" y="5.839" width="20.439" height="19.104" filterUnits="userSpaceOnUse" color-interpolation-filters="sRGB"><feFlood flood-opacity="0" result="BackgroundImageFix"/><feBlend in="SourceGraphic" in2="BackgroundImageFix" result="shape"/><feGaussianBlur stdDeviation="2.604" result="effect1_foregroundBlur_7292_121551"/></filter><filter id="j" x="29.414" y="10.225" width="11.371" height="10.242" filterUnits="userSpaceOnUse" color-interpolation-filters="sRGB"><feFlood flood-opacity="0" result="BackgroundImageFix"/><feBlend in="SourceGraphic" in2="BackgroundImageFix" result="shape"/><feGaussianBlur stdDeviation=".868" result="effect1_foregroundBlur_7292_121551"/></filter><filter id="k" x="30.977" y="11.612" width="8.246" height="7.463" filterUnits="userSpaceOnUse" color-interpolation-filters="sRGB"><feFlood flood-opacity="0" result="BackgroundImageFix"/><feBlend in="SourceGraphic" in2="BackgroundImageFix" result="shape"/><feGaussianBlur stdDeviation=".651" result="effect1_foregroundBlur_7292_121551"/></filter><filter id="l" x="32.019" y="12.569" width="6.076" height="5.47" filterUnits="userSpaceOnUse" color-interpolation-filters="sRGB"><feFlood flood-opacity="0" result="BackgroundImageFix"/><feBlend in="SourceGraphic" in2="BackgroundImageFix" result="shape"/><feGaussianBlur stdDeviation=".434" result="effect1_foregroundBlur_7292_121551"/></filter><filter id="m" x="33.755" y="13.567" width="2.577" height="2.562" filterUnits="userSpaceOnUse" color-interpolation-filters="sRGB"><feFlood flood-opacity="0" result="BackgroundImageFix"/><feBlend in="SourceGraphic" in2="BackgroundImageFix" result="shape"/><feGaussianBlur stdDeviation=".174" result="effect1_foregroundBlur_7292_121551"/></filter><clipPath id="a"><path fill="#fff" d="M0 0h360v249H0z"/></clipPath></defs></svg>